<svg xmlns="http://www.w3.org/2000/svg" xmlns:xlink="http://www.w3.org/1999/xlink" width="500" zoomAndPan="magnify" viewBox="0 0 375 374.999991" height="500" preserveAspectRatio="xMidYMid meet" version="1.0"><defs><g/><clipPath id="b94a9b5320"><path d="M 37.5 126 L 132.75 126 L 132.75 242.105469 L 37.5 242.105469 Z M 37.5 126 " clip-rule="nonzero"/></clipPath></defs><g clip-path="url(#b94a9b5320)"><path fill="#000000" d="M 49.914062 162.089844 C 49.570312 162.757812 49.042969 163.203125 48.328125 163.425781 C 48.105469 163.492188 47.875 163.523438 47.644531 163.523438 C 47.234375 163.527344 46.855469 163.425781 46.5 163.21875 C 43.785156 161.738281 41.324219 160.304688 38.960938 158.84375 C 38.511719 158.523438 38.199219 158.105469 38.023438 157.585938 C 38 157.523438 37.96875 157.464844 37.929688 157.410156 L 37.816406 157.203125 L 37.816406 156.980469 C 37.8125 156.453125 37.933594 155.960938 38.183594 155.503906 C 38.4375 155.042969 38.785156 154.675781 39.230469 154.398438 C 39.59375 154.1875 39.988281 154.078125 40.410156 154.078125 C 40.832031 154.074219 41.226562 154.175781 41.597656 154.382812 C 44.230469 155.816406 46.835938 157.359375 49.058594 158.683594 C 49.332031 158.855469 49.566406 159.078125 49.757812 159.339844 C 49.949219 159.605469 50.085938 159.898438 50.164062 160.214844 C 50.246094 160.53125 50.261719 160.851562 50.21875 161.175781 C 50.175781 161.5 50.074219 161.804688 49.914062 162.089844 Z M 86.695312 139.703125 L 86.761719 139.703125 C 87.453125 139.722656 88.050781 139.496094 88.554688 139.019531 C 89.125 138.429688 89.398438 137.722656 89.378906 136.902344 C 89.394531 135.980469 89.394531 135.054688 89.394531 134.132812 L 89.378906 132.332031 L 89.378906 131.726562 C 89.378906 130.804688 89.394531 129.882812 89.378906 128.957031 C 89.398438 128.59375 89.347656 128.242188 89.222656 127.902344 C 89.101562 127.5625 88.914062 127.261719 88.664062 126.996094 C 88.414062 126.734375 88.125 126.53125 87.792969 126.386719 C 87.460938 126.246094 87.113281 126.175781 86.75 126.175781 C 86.390625 126.175781 86.042969 126.25 85.710938 126.394531 C 85.378906 126.539062 85.089844 126.742188 84.84375 127.007812 C 84.597656 127.273438 84.410156 127.578125 84.289062 127.917969 C 84.167969 128.257812 84.117188 128.613281 84.140625 128.972656 C 84.125 131.617188 84.109375 134.242188 84.125 136.886719 C 84.089844 137.25 84.132812 137.601562 84.246094 137.949219 C 84.363281 138.292969 84.542969 138.597656 84.789062 138.867188 C 85.03125 139.136719 85.320312 139.34375 85.652344 139.488281 C 85.984375 139.632812 86.332031 139.707031 86.695312 139.703125 Z M 47.597656 196.210938 L 47.3125 196.242188 C 47.050781 196.257812 46.808594 196.324219 46.582031 196.449219 L 45.277344 197.195312 C 43.136719 198.421875 40.992188 199.648438 38.882812 200.921875 C 38.621094 201.101562 38.402344 201.324219 38.222656 201.589844 C 38.046875 201.851562 37.925781 202.140625 37.859375 202.449219 C 37.792969 202.761719 37.785156 203.074219 37.839844 203.386719 C 37.894531 203.699219 38 203.992188 38.167969 204.265625 C 38.382812 204.683594 38.695312 205.019531 39.097656 205.265625 C 39.496094 205.515625 39.933594 205.644531 40.40625 205.652344 C 40.792969 205.65625 41.160156 205.566406 41.5 205.378906 C 43.929688 204.042969 46.421875 202.609375 49.136719 200.96875 C 49.375 200.820312 49.578125 200.632812 49.75 200.410156 C 49.921875 200.1875 50.050781 199.945312 50.136719 199.675781 C 50.222656 199.410156 50.261719 199.132812 50.25 198.851562 C 50.238281 198.570312 50.179688 198.300781 50.074219 198.039062 C 49.996094 197.773438 49.875 197.523438 49.71875 197.296875 C 49.558594 197.066406 49.367188 196.871094 49.144531 196.707031 C 48.917969 196.539062 48.675781 196.414062 48.410156 196.332031 C 48.144531 196.246094 47.875 196.203125 47.597656 196.210938 Z M 132.6875 156.773438 C 132.644531 156.273438 132.488281 155.8125 132.210938 155.394531 C 131.933594 154.976562 131.574219 154.648438 131.128906 154.414062 C 130.699219 154.203125 130.242188 154.105469 129.757812 154.128906 C 129.277344 154.148438 128.832031 154.28125 128.417969 154.527344 C 126.097656 155.832031 123.78125 157.1875 121.480469 158.554688 C 121.171875 158.722656 120.910156 158.945312 120.691406 159.21875 C 120.472656 159.496094 120.3125 159.800781 120.214844 160.140625 C 120.121094 160.476562 120.089844 160.820312 120.128906 161.167969 C 120.171875 161.519531 120.277344 161.847656 120.445312 162.152344 C 120.671875 162.570312 120.984375 162.898438 121.390625 163.140625 C 121.792969 163.382812 122.230469 163.503906 122.699219 163.507812 C 123.191406 163.5 123.644531 163.375 124.066406 163.125 C 126.367188 161.835938 128.8125 160.433594 131.179688 158.984375 C 131.625 158.667969 131.976562 158.269531 132.242188 157.792969 C 132.335938 157.632812 132.433594 157.488281 132.527344 157.34375 L 132.734375 157.089844 Z M 131.179688 200.699219 C 128.875 199.363281 126.570312 198.03125 124.257812 196.703125 C 123.546875 196.253906 122.785156 196.128906 121.972656 196.335938 C 121.289062 196.527344 120.78125 196.933594 120.445312 197.5625 C 120.273438 197.886719 120.171875 198.234375 120.140625 198.601562 C 120.109375 198.964844 120.148438 199.324219 120.261719 199.675781 C 120.375 200.023438 120.554688 200.339844 120.796875 200.617188 C 121.035156 200.894531 121.324219 201.113281 121.652344 201.273438 C 123.859375 202.5625 126.082031 203.851562 128.320312 205.140625 C 128.617188 205.296875 128.921875 205.425781 129.242188 205.523438 L 129.605469 205.652344 L 129.78125 205.652344 C 130.078125 205.660156 130.367188 205.621094 130.652344 205.535156 C 130.933594 205.445312 131.195312 205.3125 131.433594 205.132812 C 131.671875 204.957031 131.875 204.742188 132.039062 204.496094 C 132.207031 204.25 132.324219 203.980469 132.402344 203.691406 C 132.488281 203.410156 132.523438 203.121094 132.511719 202.828125 C 132.496094 202.53125 132.433594 202.25 132.324219 201.976562 C 132.210938 201.703125 132.058594 201.457031 131.863281 201.238281 C 131.664062 201.019531 131.4375 200.839844 131.179688 200.699219 Z M 97.09375 228.324219 L 87.710938 228.324219 C 87.433594 228.320312 87.167969 228.375 86.910156 228.480469 C 86.652344 228.589844 86.425781 228.742188 86.230469 228.9375 C 86.035156 229.132812 85.882812 229.363281 85.777344 229.621094 C 85.671875 229.878906 85.617188 230.144531 85.617188 230.425781 L 85.617188 239.914062 C 85.617188 240.191406 85.671875 240.460938 85.777344 240.71875 C 85.882812 240.976562 86.035156 241.203125 86.230469 241.398438 C 86.425781 241.597656 86.652344 241.75 86.910156 241.855469 C 87.167969 241.960938 87.433594 242.015625 87.710938 242.015625 L 97.09375 242.015625 C 97.371094 242.011719 97.636719 241.957031 97.890625 241.851562 C 98.148438 241.746094 98.371094 241.59375 98.566406 241.394531 C 98.761719 241.199219 98.914062 240.972656 99.019531 240.714844 C 99.121094 240.457031 99.175781 240.191406 99.175781 239.914062 L 99.175781 230.425781 C 99.175781 230.148438 99.121094 229.878906 99.019531 229.621094 C 98.914062 229.367188 98.761719 229.140625 98.566406 228.941406 C 98.371094 228.746094 98.148438 228.59375 97.890625 228.484375 C 97.636719 228.378906 97.371094 228.324219 97.09375 228.324219 Z M 112.714844 186.847656 C 111.605469 189.761719 109.949219 192.320312 107.746094 194.523438 C 105.515625 196.6875 103.664062 199.144531 102.191406 201.882812 C 100.71875 204.625 99.691406 207.527344 99.109375 210.585938 C 98.429688 213.769531 98.160156 217.035156 97.714844 220.265625 C 97.632812 220.792969 97.632812 221.300781 97.585938 221.859375 L 86.726562 221.859375 C 86.695312 221.207031 86.664062 220.554688 86.632812 219.949219 C 86.632812 219.898438 86.601562 219.851562 86.601562 219.804688 C 86.601562 219.757812 86.617188 219.726562 86.617188 219.675781 C 86.394531 215.441406 86.234375 212.273438 86.234375 210.648438 C 86.269531 209.894531 86.078125 209.199219 85.664062 208.5625 C 85.121094 207.886719 84.429688 207.445312 83.585938 207.242188 C 81.246094 206.464844 78.996094 205.480469 76.839844 204.28125 C 74.472656 203.023438 74.058594 202.960938 72.074219 204.789062 C 71.140625 205.652344 70.171875 206.460938 69.3125 207.195312 C 69.011719 207.449219 68.710938 207.703125 68.441406 207.941406 L 64.679688 204.648438 C 65.074219 204.167969 65.472656 203.707031 65.851562 203.261719 C 66.851562 202.085938 67.804688 200.96875 68.804688 199.886719 C 69.023438 199.652344 69.199219 199.386719 69.332031 199.09375 C 69.460938 198.800781 69.542969 198.496094 69.570312 198.175781 C 69.597656 197.855469 69.574219 197.539062 69.5 197.226562 C 69.421875 196.914062 69.296875 196.621094 69.121094 196.351562 C 68.089844 194.042969 67.105469 191.574219 66.121094 188.804688 C 66.058594 188.503906 65.945312 188.222656 65.785156 187.960938 C 65.621094 187.699219 65.421875 187.46875 65.1875 187.273438 C 64.949219 187.078125 64.683594 186.929688 64.398438 186.824219 C 64.109375 186.714844 63.808594 186.660156 63.503906 186.65625 C 61.488281 186.527344 59.789062 186.402344 58.089844 186.179688 C 57.675781 186.132812 57.058594 185.683594 57.042969 185.492188 C 56.953125 184.402344 56.925781 183.308594 56.960938 182.214844 C 56.980469 181.863281 56.980469 181.515625 56.980469 181.164062 L 58.929688 180.972656 C 60.535156 180.796875 62.058594 180.652344 63.566406 180.542969 C 63.871094 180.535156 64.167969 180.476562 64.453125 180.367188 C 64.738281 180.257812 64.996094 180.105469 65.230469 179.910156 C 65.460938 179.714844 65.65625 179.484375 65.8125 179.222656 C 65.96875 178.957031 66.078125 178.675781 66.136719 178.378906 C 67.121094 175.605469 68.074219 173.1875 69.074219 170.988281 C 69.246094 170.71875 69.367188 170.425781 69.441406 170.113281 C 69.515625 169.800781 69.535156 169.484375 69.507812 169.164062 C 69.476562 168.847656 69.394531 168.539062 69.265625 168.246094 C 69.132812 167.953125 68.960938 167.691406 68.742188 167.457031 C 67.742188 166.308594 66.773438 165.113281 65.851562 163.96875 C 65.488281 163.539062 65.136719 163.109375 64.789062 162.695312 L 68.28125 159.175781 C 68.695312 159.511719 69.121094 159.859375 69.535156 160.210938 C 70.632812 161.101562 71.742188 162.027344 72.820312 162.980469 C 73.0625 163.21875 73.335938 163.402344 73.644531 163.539062 C 73.953125 163.679688 74.277344 163.757812 74.613281 163.777344 C 74.949219 163.800781 75.277344 163.765625 75.601562 163.667969 C 75.921875 163.570312 76.21875 163.421875 76.488281 163.21875 C 78.878906 161.960938 81.339844 160.859375 83.871094 159.910156 C 84.199219 159.835938 84.507812 159.710938 84.792969 159.535156 C 85.078125 159.355469 85.328125 159.136719 85.539062 158.875 C 85.75 158.613281 85.914062 158.324219 86.027344 158.007812 C 86.140625 157.691406 86.199219 157.363281 86.203125 157.027344 C 86.269531 155.6875 86.410156 154.335938 86.539062 153.015625 L 86.679688 151.4375 L 86.695312 151.421875 C 104.078125 151.882812 119.558594 170.113281 112.714844 186.847656 Z M 86.570312 197.179688 C 86.539062 197.007812 86.523438 196.832031 86.523438 196.65625 L 86.523438 170.113281 C 86.328125 170.066406 86.144531 169.996094 85.964844 169.90625 C 85.1875 170.078125 84.429688 170.3125 83.691406 170.613281 C 82.953125 170.914062 82.25 171.277344 81.570312 171.699219 C 80.894531 172.121094 80.261719 172.597656 79.664062 173.128906 C 79.070312 173.660156 78.527344 174.238281 78.03125 174.863281 C 77.535156 175.488281 77.09375 176.148438 76.710938 176.851562 C 76.328125 177.550781 76.007812 178.277344 75.75 179.035156 C 75.492188 179.789062 75.296875 180.5625 75.171875 181.351562 C 75.046875 182.136719 74.988281 182.933594 74.996094 183.730469 C 75.003906 184.527344 75.082031 185.320312 75.222656 186.105469 C 75.367188 186.890625 75.578125 187.660156 75.851562 188.410156 C 76.128906 189.160156 76.464844 189.878906 76.863281 190.570312 C 77.261719 191.261719 77.714844 191.914062 78.222656 192.53125 C 78.734375 193.144531 79.292969 193.707031 79.898438 194.226562 C 80.503906 194.746094 81.148438 195.207031 81.835938 195.613281 C 82.519531 196.019531 83.234375 196.367188 83.980469 196.652344 C 84.722656 196.9375 85.488281 197.15625 86.269531 197.308594 C 86.332031 197.292969 86.378906 197.242188 86.441406 197.226562 C 86.484375 197.214844 86.527344 197.199219 86.570312 197.179688 Z M 86.570312 197.179688 " fill-opacity="1" fill-rule="nonzero"/></g><g fill="#009664" fill-opacity="1"><g transform="translate(146.314464, 238.511293)"><g><path d="M 8.921875 -11.421875 L 8.921875 -10.28125 L 5.34375 -10.28125 L 5.34375 0 L 4 0 L 4 -10.28125 L 0.421875 -10.28125 L 0.421875 -11.421875 Z M 8.921875 -11.421875 "/></g></g></g><g fill="#009664" fill-opacity="1"><g transform="translate(155.640311, 238.511293)"><g><path d="M 8.21875 -4.015625 L 2.296875 -4.015625 C 2.328125 -2.972656 2.578125 -2.207031 3.046875 -1.71875 C 3.515625 -1.226562 4.15625 -0.984375 4.96875 -0.984375 C 5.582031 -0.984375 6.078125 -1.09375 6.453125 -1.3125 C 6.828125 -1.53125 7.117188 -1.875 7.328125 -2.34375 L 7.5 -2.34375 L 8.328125 -1.84375 C 8.078125 -1.21875 7.675781 -0.722656 7.125 -0.359375 C 6.570312 -0.00390625 5.851562 0.171875 4.96875 0.171875 C 4.132812 0.171875 3.414062 0.00390625 2.8125 -0.328125 C 2.21875 -0.660156 1.757812 -1.160156 1.4375 -1.828125 C 1.113281 -2.492188 0.953125 -3.320312 0.953125 -4.3125 C 0.953125 -5.289062 1.117188 -6.113281 1.453125 -6.78125 C 1.796875 -7.457031 2.265625 -7.957031 2.859375 -8.28125 C 3.453125 -8.613281 4.128906 -8.78125 4.890625 -8.78125 C 5.992188 -8.78125 6.851562 -8.46875 7.46875 -7.84375 C 8.09375 -7.226562 8.40625 -6.304688 8.40625 -5.078125 C 8.40625 -4.597656 8.394531 -4.273438 8.375 -4.109375 Z M 7.15625 -5.078125 C 7.132812 -5.992188 6.929688 -6.660156 6.546875 -7.078125 C 6.160156 -7.492188 5.609375 -7.703125 4.890625 -7.703125 C 4.128906 -7.703125 3.535156 -7.492188 3.109375 -7.078125 C 2.679688 -6.660156 2.421875 -5.992188 2.328125 -5.078125 Z M 7.15625 -5.078125 "/></g></g></g><g fill="#009664" fill-opacity="1"><g transform="translate(164.825567, 238.511293)"><g><path d="M 3.5625 0.171875 C 2.707031 0.171875 2.039062 -0.0507812 1.5625 -0.5 C 1.09375 -0.945312 0.859375 -1.582031 0.859375 -2.40625 C 0.859375 -2.914062 0.960938 -3.34375 1.171875 -3.6875 C 1.378906 -4.039062 1.703125 -4.328125 2.140625 -4.546875 C 2.585938 -4.773438 3.171875 -4.945312 3.890625 -5.0625 C 4.515625 -5.164062 4.988281 -5.28125 5.3125 -5.40625 C 5.632812 -5.539062 5.851562 -5.6875 5.96875 -5.84375 C 6.082031 -6.007812 6.140625 -6.21875 6.140625 -6.46875 C 6.140625 -6.851562 6.003906 -7.148438 5.734375 -7.359375 C 5.460938 -7.566406 5.03125 -7.671875 4.4375 -7.671875 C 3.882812 -7.671875 3.40625 -7.5625 3 -7.34375 C 2.601562 -7.132812 2.238281 -6.816406 1.90625 -6.390625 L 1.75 -6.390625 L 1.125 -7.265625 C 1.488281 -7.734375 1.953125 -8.101562 2.515625 -8.375 C 3.078125 -8.644531 3.71875 -8.78125 4.4375 -8.78125 C 5.457031 -8.78125 6.207031 -8.554688 6.6875 -8.109375 C 7.164062 -7.671875 7.40625 -7.054688 7.40625 -6.265625 L 7.40625 -1.703125 C 7.40625 -1.222656 7.609375 -0.984375 8.015625 -0.984375 C 8.148438 -0.984375 8.28125 -1.003906 8.40625 -1.046875 L 8.515625 -1.015625 L 8.671875 -0.140625 C 8.578125 -0.078125 8.453125 -0.03125 8.296875 0 C 8.140625 0.0390625 7.984375 0.0625 7.828125 0.0625 C 7.347656 0.0625 6.988281 -0.0390625 6.75 -0.25 C 6.507812 -0.457031 6.351562 -0.765625 6.28125 -1.171875 L 6.125 -1.1875 C 5.875 -0.738281 5.539062 -0.398438 5.125 -0.171875 C 4.707031 0.0546875 4.1875 0.171875 3.5625 0.171875 Z M 3.84375 -0.859375 C 4.320312 -0.859375 4.734375 -0.96875 5.078125 -1.1875 C 5.429688 -1.40625 5.703125 -1.710938 5.890625 -2.109375 C 6.078125 -2.515625 6.171875 -2.984375 6.171875 -3.515625 L 6.171875 -4.609375 L 6.03125 -4.640625 C 5.832031 -4.503906 5.59375 -4.390625 5.3125 -4.296875 C 5.039062 -4.203125 4.660156 -4.117188 4.171875 -4.046875 C 3.671875 -3.984375 3.269531 -3.878906 2.96875 -3.734375 C 2.675781 -3.597656 2.46875 -3.421875 2.34375 -3.203125 C 2.21875 -2.984375 2.15625 -2.71875 2.15625 -2.40625 C 2.15625 -1.894531 2.300781 -1.507812 2.59375 -1.25 C 2.894531 -0.988281 3.3125 -0.859375 3.84375 -0.859375 Z M 3.84375 -0.859375 "/></g></g></g><g fill="#009664" fill-opacity="1"><g transform="translate(173.737458, 238.511293)"><g><path d="M 1.5 0 L 1.5 -8.625 L 2.71875 -8.625 L 2.71875 -7.34375 L 2.875 -7.3125 C 3.164062 -7.800781 3.519531 -8.164062 3.9375 -8.40625 C 4.351562 -8.65625 4.847656 -8.78125 5.421875 -8.78125 C 6.085938 -8.78125 6.601562 -8.65625 6.96875 -8.40625 C 7.332031 -8.15625 7.617188 -7.75 7.828125 -7.1875 L 7.984375 -7.1875 C 8.285156 -7.707031 8.648438 -8.101562 9.078125 -8.375 C 9.515625 -8.644531 10.050781 -8.78125 10.6875 -8.78125 C 11.570312 -8.78125 12.234375 -8.539062 12.671875 -8.0625 C 13.109375 -7.582031 13.328125 -6.851562 13.328125 -5.875 L 13.328125 0 L 12.046875 0 L 12.046875 -5.84375 C 12.046875 -6.46875 11.914062 -6.925781 11.65625 -7.21875 C 11.394531 -7.519531 10.972656 -7.671875 10.390625 -7.671875 C 9.703125 -7.671875 9.140625 -7.421875 8.703125 -6.921875 C 8.265625 -6.421875 8.046875 -5.597656 8.046875 -4.453125 L 8.046875 0 L 6.78125 0 L 6.78125 -5.84375 C 6.78125 -6.46875 6.644531 -6.925781 6.375 -7.21875 C 6.113281 -7.519531 5.691406 -7.671875 5.109375 -7.671875 C 4.421875 -7.671875 3.859375 -7.425781 3.421875 -6.9375 C 2.992188 -6.457031 2.78125 -5.675781 2.78125 -4.59375 L 2.78125 0 Z M 1.5 0 "/></g></g></g><g fill="#009664" fill-opacity="1"><g transform="translate(188.421371, 238.511293)"><g/></g></g><g fill="#009664" fill-opacity="1"><g transform="translate(192.342289, 238.511293)"><g><path d="M 4.265625 0.171875 C 3.285156 0.171875 2.554688 -0.0859375 2.078125 -0.609375 C 1.609375 -1.128906 1.375 -1.882812 1.375 -2.875 L 1.375 -8.625 L 2.640625 -8.625 L 2.640625 -2.90625 C 2.640625 -1.601562 3.253906 -0.953125 4.484375 -0.953125 C 5.265625 -0.953125 5.878906 -1.207031 6.328125 -1.71875 C 6.785156 -2.226562 7.015625 -3.054688 7.015625 -4.203125 L 7.015625 -8.625 L 8.296875 -8.625 L 8.296875 0 L 7.09375 0 L 7.09375 -1.359375 L 6.921875 -1.390625 C 6.628906 -0.867188 6.273438 -0.476562 5.859375 -0.21875 C 5.441406 0.0390625 4.910156 0.171875 4.265625 0.171875 Z M 4.265625 0.171875 "/></g></g></g><g fill="#009664" fill-opacity="1"><g transform="translate(202.128966, 238.511293)"><g><path d="M 1.5 3.5 L 1.5 -8.625 L 2.78125 -8.625 L 2.78125 -7.328125 L 2.9375 -7.296875 C 3.582031 -8.285156 4.523438 -8.78125 5.765625 -8.78125 C 6.484375 -8.78125 7.109375 -8.613281 7.640625 -8.28125 C 8.179688 -7.957031 8.597656 -7.460938 8.890625 -6.796875 C 9.191406 -6.128906 9.34375 -5.300781 9.34375 -4.3125 C 9.34375 -3.320312 9.1875 -2.492188 8.875 -1.828125 C 8.5625 -1.160156 8.128906 -0.660156 7.578125 -0.328125 C 7.023438 0.00390625 6.390625 0.171875 5.671875 0.171875 C 5.085938 0.171875 4.566406 0.0664062 4.109375 -0.140625 C 3.660156 -0.347656 3.269531 -0.679688 2.9375 -1.140625 L 2.78125 -1.109375 L 2.78125 3.5 Z M 5.390625 -0.984375 C 7.128906 -0.984375 8 -2.09375 8 -4.3125 C 8 -6.53125 7.128906 -7.640625 5.390625 -7.640625 C 4.878906 -7.640625 4.425781 -7.519531 4.03125 -7.28125 C 3.644531 -7.050781 3.335938 -6.6875 3.109375 -6.1875 C 2.890625 -5.695312 2.78125 -5.070312 2.78125 -4.3125 C 2.78125 -3.550781 2.890625 -2.921875 3.109375 -2.421875 C 3.335938 -1.929688 3.644531 -1.566406 4.03125 -1.328125 C 4.425781 -1.097656 4.878906 -0.984375 5.390625 -0.984375 Z M 5.390625 -0.984375 "/></g></g></g><g fill="#009664" fill-opacity="1"><g transform="translate(212.407706, 238.511293)"><g/></g></g><g fill="#009664" fill-opacity="1"><g transform="translate(216.328623, 238.511293)"><g><path d="M 1.921875 0 L 1.921875 -7.578125 L 0.421875 -7.578125 L 0.421875 -8.625 L 1.921875 -8.625 C 1.828125 -9 1.78125 -9.359375 1.78125 -9.703125 C 1.78125 -10.253906 1.898438 -10.722656 2.140625 -11.109375 C 2.378906 -11.492188 2.707031 -11.78125 3.125 -11.96875 C 3.550781 -12.15625 4.039062 -12.25 4.59375 -12.25 C 5.445312 -12.25 6.101562 -12.0625 6.5625 -11.6875 L 6.078125 -10.796875 L 5.90625 -10.765625 C 5.570312 -11.035156 5.132812 -11.171875 4.59375 -11.171875 C 4.082031 -11.171875 3.695312 -11.039062 3.4375 -10.78125 C 3.1875 -10.519531 3.0625 -10.148438 3.0625 -9.671875 C 3.0625 -9.367188 3.109375 -9.019531 3.203125 -8.625 L 5.9375 -8.625 L 5.9375 -7.578125 L 3.203125 -7.578125 L 3.203125 0 Z M 1.921875 0 "/></g></g></g><g fill="#009664" fill-opacity="1"><g transform="translate(222.467748, 238.511293)"><g><path d="M 4.953125 0.171875 C 4.140625 0.171875 3.429688 0 2.828125 -0.34375 C 2.222656 -0.695312 1.757812 -1.207031 1.4375 -1.875 C 1.113281 -2.539062 0.953125 -3.351562 0.953125 -4.3125 C 0.953125 -5.257812 1.113281 -6.066406 1.4375 -6.734375 C 1.757812 -7.410156 2.222656 -7.921875 2.828125 -8.265625 C 3.429688 -8.609375 4.140625 -8.78125 4.953125 -8.78125 C 5.765625 -8.78125 6.46875 -8.609375 7.0625 -8.265625 C 7.664062 -7.921875 8.128906 -7.410156 8.453125 -6.734375 C 8.785156 -6.066406 8.953125 -5.257812 8.953125 -4.3125 C 8.953125 -3.351562 8.785156 -2.539062 8.453125 -1.875 C 8.128906 -1.207031 7.664062 -0.695312 7.0625 -0.34375 C 6.46875 0 5.765625 0.171875 4.953125 0.171875 Z M 4.953125 -0.984375 C 5.804688 -0.984375 6.460938 -1.253906 6.921875 -1.796875 C 7.378906 -2.335938 7.609375 -3.175781 7.609375 -4.3125 C 7.609375 -5.445312 7.378906 -6.285156 6.921875 -6.828125 C 6.460938 -7.367188 5.804688 -7.640625 4.953125 -7.640625 C 4.085938 -7.640625 3.425781 -7.367188 2.96875 -6.828125 C 2.507812 -6.285156 2.28125 -5.445312 2.28125 -4.3125 C 2.28125 -3.175781 2.507812 -2.335938 2.96875 -1.796875 C 3.425781 -1.253906 4.085938 -0.984375 4.953125 -0.984375 Z M 4.953125 -0.984375 "/></g></g></g><g fill="#009664" fill-opacity="1"><g transform="translate(232.355958, 238.511293)"><g><path d="M 1.5 0 L 1.5 -8.625 L 2.71875 -8.625 L 2.71875 -7.265625 L 2.875 -7.234375 C 3.28125 -8.210938 4.035156 -8.703125 5.140625 -8.703125 C 5.734375 -8.703125 6.175781 -8.59375 6.46875 -8.375 L 6.140625 -7.296875 L 5.984375 -7.265625 C 5.660156 -7.429688 5.304688 -7.515625 4.921875 -7.515625 C 4.234375 -7.515625 3.703125 -7.253906 3.328125 -6.734375 C 2.960938 -6.222656 2.78125 -5.390625 2.78125 -4.234375 L 2.78125 0 Z M 1.5 0 "/></g></g></g><g fill="#009664" fill-opacity="1"><g transform="translate(239.010583, 238.511293)"><g/></g></g><g fill="#009664" fill-opacity="1"><g transform="translate(242.9315, 238.511293)"><g><path d="M 3.9375 0.171875 C 3.394531 0.171875 2.890625 0.0976562 2.421875 -0.046875 C 1.960938 -0.191406 1.570312 -0.390625 1.25 -0.640625 C 0.9375 -0.890625 0.71875 -1.171875 0.59375 -1.484375 L 1.34375 -2.265625 L 1.5 -2.265625 C 1.78125 -1.835938 2.117188 -1.515625 2.515625 -1.296875 C 2.910156 -1.085938 3.382812 -0.984375 3.9375 -0.984375 C 4.570312 -0.984375 5.050781 -1.101562 5.375 -1.34375 C 5.707031 -1.59375 5.875 -1.941406 5.875 -2.390625 C 5.875 -2.722656 5.773438 -3 5.578125 -3.21875 C 5.378906 -3.445312 5.054688 -3.613281 4.609375 -3.71875 L 3.15625 -4.078125 C 2.375 -4.265625 1.804688 -4.5625 1.453125 -4.96875 C 1.097656 -5.375 0.921875 -5.878906 0.921875 -6.484375 C 0.921875 -6.953125 1.039062 -7.359375 1.28125 -7.703125 C 1.519531 -8.046875 1.863281 -8.3125 2.3125 -8.5 C 2.757812 -8.6875 3.296875 -8.78125 3.921875 -8.78125 C 4.710938 -8.78125 5.332031 -8.671875 5.78125 -8.453125 C 6.238281 -8.234375 6.597656 -7.925781 6.859375 -7.53125 L 6.140625 -6.828125 L 5.984375 -6.828125 C 5.703125 -7.140625 5.398438 -7.363281 5.078125 -7.5 C 4.753906 -7.644531 4.367188 -7.71875 3.921875 -7.71875 C 3.347656 -7.71875 2.910156 -7.613281 2.609375 -7.40625 C 2.304688 -7.207031 2.15625 -6.914062 2.15625 -6.53125 C 2.15625 -6.1875 2.257812 -5.90625 2.46875 -5.6875 C 2.6875 -5.476562 3.0625 -5.304688 3.59375 -5.171875 L 5.03125 -4.828125 C 5.78125 -4.648438 6.320312 -4.351562 6.65625 -3.9375 C 6.988281 -3.53125 7.15625 -3.019531 7.15625 -2.40625 C 7.15625 -1.894531 7.035156 -1.445312 6.796875 -1.0625 C 6.554688 -0.675781 6.191406 -0.375 5.703125 -0.15625 C 5.222656 0.0625 4.632812 0.171875 3.9375 0.171875 Z M 3.9375 0.171875 "/></g></g></g><g fill="#009664" fill-opacity="1"><g transform="translate(250.898304, 238.511293)"><g><path d="M 4.953125 0.171875 C 4.140625 0.171875 3.429688 0 2.828125 -0.34375 C 2.222656 -0.695312 1.757812 -1.207031 1.4375 -1.875 C 1.113281 -2.539062 0.953125 -3.351562 0.953125 -4.3125 C 0.953125 -5.257812 1.113281 -6.066406 1.4375 -6.734375 C 1.757812 -7.410156 2.222656 -7.921875 2.828125 -8.265625 C 3.429688 -8.609375 4.140625 -8.78125 4.953125 -8.78125 C 5.765625 -8.78125 6.46875 -8.609375 7.0625 -8.265625 C 7.664062 -7.921875 8.128906 -7.410156 8.453125 -6.734375 C 8.785156 -6.066406 8.953125 -5.257812 8.953125 -4.3125 C 8.953125 -3.351562 8.785156 -2.539062 8.453125 -1.875 C 8.128906 -1.207031 7.664062 -0.695312 7.0625 -0.34375 C 6.46875 0 5.765625 0.171875 4.953125 0.171875 Z M 4.953125 -0.984375 C 5.804688 -0.984375 6.460938 -1.253906 6.921875 -1.796875 C 7.378906 -2.335938 7.609375 -3.175781 7.609375 -4.3125 C 7.609375 -5.445312 7.378906 -6.285156 6.921875 -6.828125 C 6.460938 -7.367188 5.804688 -7.640625 4.953125 -7.640625 C 4.085938 -7.640625 3.425781 -7.367188 2.96875 -6.828125 C 2.507812 -6.285156 2.28125 -5.445312 2.28125 -4.3125 C 2.28125 -3.175781 2.507812 -2.335938 2.96875 -1.796875 C 3.425781 -1.253906 4.085938 -0.984375 4.953125 -0.984375 Z M 4.953125 -0.984375 "/></g></g></g><g fill="#009664" fill-opacity="1"><g transform="translate(260.786513, 238.511293)"><g><path d="M 4.953125 0.171875 C 4.191406 0.171875 3.507812 0 2.90625 -0.34375 C 2.300781 -0.695312 1.820312 -1.210938 1.46875 -1.890625 C 1.125 -2.566406 0.953125 -3.375 0.953125 -4.3125 C 0.953125 -5.25 1.125 -6.054688 1.46875 -6.734375 C 1.820312 -7.410156 2.300781 -7.921875 2.90625 -8.265625 C 3.507812 -8.609375 4.191406 -8.78125 4.953125 -8.78125 C 5.859375 -8.78125 6.582031 -8.609375 7.125 -8.265625 C 7.664062 -7.921875 8.054688 -7.460938 8.296875 -6.890625 L 7.421875 -6.265625 L 7.265625 -6.265625 C 7.035156 -6.742188 6.734375 -7.09375 6.359375 -7.3125 C 5.992188 -7.53125 5.523438 -7.640625 4.953125 -7.640625 C 4.421875 -7.640625 3.953125 -7.515625 3.546875 -7.265625 C 3.148438 -7.015625 2.835938 -6.640625 2.609375 -6.140625 C 2.390625 -5.640625 2.28125 -5.03125 2.28125 -4.3125 C 2.28125 -3.59375 2.390625 -2.984375 2.609375 -2.484375 C 2.835938 -1.984375 3.148438 -1.609375 3.546875 -1.359375 C 3.953125 -1.109375 4.421875 -0.984375 4.953125 -0.984375 C 5.546875 -0.984375 6.039062 -1.117188 6.4375 -1.390625 C 6.832031 -1.660156 7.140625 -2.085938 7.359375 -2.671875 L 7.53125 -2.671875 L 8.359375 -2.171875 C 8.140625 -1.453125 7.738281 -0.878906 7.15625 -0.453125 C 6.582031 -0.0351562 5.847656 0.171875 4.953125 0.171875 Z M 4.953125 0.171875 "/></g></g></g><g fill="#009664" fill-opacity="1"><g transform="translate(269.667162, 238.511293)"><g><path d="M 2.140625 -10.28125 C 1.867188 -10.28125 1.648438 -10.363281 1.484375 -10.53125 C 1.316406 -10.707031 1.234375 -10.925781 1.234375 -11.1875 C 1.234375 -11.445312 1.316406 -11.660156 1.484375 -11.828125 C 1.648438 -11.992188 1.867188 -12.078125 2.140625 -12.078125 C 2.410156 -12.078125 2.628906 -11.992188 2.796875 -11.828125 C 2.972656 -11.660156 3.0625 -11.445312 3.0625 -11.1875 C 3.0625 -10.925781 2.972656 -10.707031 2.796875 -10.53125 C 2.628906 -10.363281 2.410156 -10.28125 2.140625 -10.28125 Z M 1.5 0 L 1.5 -8.625 L 2.78125 -8.625 L 2.78125 0 Z M 1.5 0 "/></g></g></g><g fill="#009664" fill-opacity="1"><g transform="translate(273.939562, 238.511293)"><g><path d="M 3.5625 0.171875 C 2.707031 0.171875 2.039062 -0.0507812 1.5625 -0.5 C 1.09375 -0.945312 0.859375 -1.582031 0.859375 -2.40625 C 0.859375 -2.914062 0.960938 -3.34375 1.171875 -3.6875 C 1.378906 -4.039062 1.703125 -4.328125 2.140625 -4.546875 C 2.585938 -4.773438 3.171875 -4.945312 3.890625 -5.0625 C 4.515625 -5.164062 4.988281 -5.28125 5.3125 -5.40625 C 5.632812 -5.539062 5.851562 -5.6875 5.96875 -5.84375 C 6.082031 -6.007812 6.140625 -6.21875 6.140625 -6.46875 C 6.140625 -6.851562 6.003906 -7.148438 5.734375 -7.359375 C 5.460938 -7.566406 5.03125 -7.671875 4.4375 -7.671875 C 3.882812 -7.671875 3.40625 -7.5625 3 -7.34375 C 2.601562 -7.132812 2.238281 -6.816406 1.90625 -6.390625 L 1.75 -6.390625 L 1.125 -7.265625 C 1.488281 -7.734375 1.953125 -8.101562 2.515625 -8.375 C 3.078125 -8.644531 3.71875 -8.78125 4.4375 -8.78125 C 5.457031 -8.78125 6.207031 -8.554688 6.6875 -8.109375 C 7.164062 -7.671875 7.40625 -7.054688 7.40625 -6.265625 L 7.40625 -1.703125 C 7.40625 -1.222656 7.609375 -0.984375 8.015625 -0.984375 C 8.148438 -0.984375 8.28125 -1.003906 8.40625 -1.046875 L 8.515625 -1.015625 L 8.671875 -0.140625 C 8.578125 -0.078125 8.453125 -0.03125 8.296875 0 C 8.140625 0.0390625 7.984375 0.0625 7.828125 0.0625 C 7.347656 0.0625 6.988281 -0.0390625 6.75 -0.25 C 6.507812 -0.457031 6.351562 -0.765625 6.28125 -1.171875 L 6.125 -1.1875 C 5.875 -0.738281 5.539062 -0.398438 5.125 -0.171875 C 4.707031 0.0546875 4.1875 0.171875 3.5625 0.171875 Z M 3.84375 -0.859375 C 4.320312 -0.859375 4.734375 -0.96875 5.078125 -1.1875 C 5.429688 -1.40625 5.703125 -1.710938 5.890625 -2.109375 C 6.078125 -2.515625 6.171875 -2.984375 6.171875 -3.515625 L 6.171875 -4.609375 L 6.03125 -4.640625 C 5.832031 -4.503906 5.59375 -4.390625 5.3125 -4.296875 C 5.039062 -4.203125 4.660156 -4.117188 4.171875 -4.046875 C 3.671875 -3.984375 3.269531 -3.878906 2.96875 -3.734375 C 2.675781 -3.597656 2.46875 -3.421875 2.34375 -3.203125 C 2.21875 -2.984375 2.15625 -2.71875 2.15625 -2.40625 C 2.15625 -1.894531 2.300781 -1.507812 2.59375 -1.25 C 2.894531 -0.988281 3.3125 -0.859375 3.84375 -0.859375 Z M 3.84375 -0.859375 "/></g></g></g><g fill="#009664" fill-opacity="1"><g transform="translate(282.851453, 238.511293)"><g><path d="M 3.4375 0.171875 C 2.820312 0.171875 2.335938 0 1.984375 -0.34375 C 1.640625 -0.695312 1.46875 -1.21875 1.46875 -1.90625 L 1.46875 -12.078125 L 2.75 -12.078125 L 2.75 -2 C 2.75 -1.632812 2.816406 -1.375 2.953125 -1.21875 C 3.085938 -1.0625 3.300781 -0.984375 3.59375 -0.984375 C 3.769531 -0.984375 3.953125 -1.007812 4.140625 -1.0625 L 4.25 -1.03125 L 4.390625 -0.03125 C 4.296875 0.03125 4.160156 0.078125 3.984375 0.109375 C 3.816406 0.148438 3.632812 0.171875 3.4375 0.171875 Z M 3.4375 0.171875 "/></g></g></g><g fill="#009664" fill-opacity="1"><g transform="translate(287.537809, 238.511293)"><g/></g></g><g fill="#009664" fill-opacity="1"><g transform="translate(291.458726, 238.511293)"><g><path d="M 2.140625 -10.28125 C 1.867188 -10.28125 1.648438 -10.363281 1.484375 -10.53125 C 1.316406 -10.707031 1.234375 -10.925781 1.234375 -11.1875 C 1.234375 -11.445312 1.316406 -11.660156 1.484375 -11.828125 C 1.648438 -11.992188 1.867188 -12.078125 2.140625 -12.078125 C 2.410156 -12.078125 2.628906 -11.992188 2.796875 -11.828125 C 2.972656 -11.660156 3.0625 -11.445312 3.0625 -11.1875 C 3.0625 -10.925781 2.972656 -10.707031 2.796875 -10.53125 C 2.628906 -10.363281 2.410156 -10.28125 2.140625 -10.28125 Z M 1.5 0 L 1.5 -8.625 L 2.78125 -8.625 L 2.78125 0 Z M 1.5 0 "/></g></g></g><g fill="#009664" fill-opacity="1"><g transform="translate(295.731125, 238.511293)"><g><path d="M 1.5 0 L 1.5 -8.625 L 2.71875 -8.625 L 2.71875 -7.34375 L 2.875 -7.3125 C 3.164062 -7.800781 3.519531 -8.164062 3.9375 -8.40625 C 4.351562 -8.65625 4.847656 -8.78125 5.421875 -8.78125 C 6.085938 -8.78125 6.601562 -8.65625 6.96875 -8.40625 C 7.332031 -8.15625 7.617188 -7.75 7.828125 -7.1875 L 7.984375 -7.1875 C 8.285156 -7.707031 8.648438 -8.101562 9.078125 -8.375 C 9.515625 -8.644531 10.050781 -8.78125 10.6875 -8.78125 C 11.570312 -8.78125 12.234375 -8.539062 12.671875 -8.0625 C 13.109375 -7.582031 13.328125 -6.851562 13.328125 -5.875 L 13.328125 0 L 12.046875 0 L 12.046875 -5.84375 C 12.046875 -6.46875 11.914062 -6.925781 11.65625 -7.21875 C 11.394531 -7.519531 10.972656 -7.671875 10.390625 -7.671875 C 9.703125 -7.671875 9.140625 -7.421875 8.703125 -6.921875 C 8.265625 -6.421875 8.046875 -5.597656 8.046875 -4.453125 L 8.046875 0 L 6.78125 0 L 6.78125 -5.84375 C 6.78125 -6.46875 6.644531 -6.925781 6.375 -7.21875 C 6.113281 -7.519531 5.691406 -7.671875 5.109375 -7.671875 C 4.421875 -7.671875 3.859375 -7.425781 3.421875 -6.9375 C 2.992188 -6.457031 2.78125 -5.675781 2.78125 -4.59375 L 2.78125 0 Z M 1.5 0 "/></g></g></g><g fill="#009664" fill-opacity="1"><g transform="translate(310.415039, 238.511293)"><g><path d="M 1.5 3.5 L 1.5 -8.625 L 2.78125 -8.625 L 2.78125 -7.328125 L 2.9375 -7.296875 C 3.582031 -8.285156 4.523438 -8.78125 5.765625 -8.78125 C 6.484375 -8.78125 7.109375 -8.613281 7.640625 -8.28125 C 8.179688 -7.957031 8.597656 -7.460938 8.890625 -6.796875 C 9.191406 -6.128906 9.34375 -5.300781 9.34375 -4.3125 C 9.34375 -3.320312 9.1875 -2.492188 8.875 -1.828125 C 8.5625 -1.160156 8.128906 -0.660156 7.578125 -0.328125 C 7.023438 0.00390625 6.390625 0.171875 5.671875 0.171875 C 5.085938 0.171875 4.566406 0.0664062 4.109375 -0.140625 C 3.660156 -0.347656 3.269531 -0.679688 2.9375 -1.140625 L 2.78125 -1.109375 L 2.78125 3.5 Z M 5.390625 -0.984375 C 7.128906 -0.984375 8 -2.09375 8 -4.3125 C 8 -6.53125 7.128906 -7.640625 5.390625 -7.640625 C 4.878906 -7.640625 4.425781 -7.519531 4.03125 -7.28125 C 3.644531 -7.050781 3.335938 -6.6875 3.109375 -6.1875 C 2.890625 -5.695312 2.78125 -5.070312 2.78125 -4.3125 C 2.78125 -3.550781 2.890625 -2.921875 3.109375 -2.421875 C 3.335938 -1.929688 3.644531 -1.566406 4.03125 -1.328125 C 4.425781 -1.097656 4.878906 -0.984375 5.390625 -0.984375 Z M 5.390625 -0.984375 "/></g></g></g><g fill="#009664" fill-opacity="1"><g transform="translate(320.693778, 238.511293)"><g><path d="M 3.5625 0.171875 C 2.707031 0.171875 2.039062 -0.0507812 1.5625 -0.5 C 1.09375 -0.945312 0.859375 -1.582031 0.859375 -2.40625 C 0.859375 -2.914062 0.960938 -3.34375 1.171875 -3.6875 C 1.378906 -4.039062 1.703125 -4.328125 2.140625 -4.546875 C 2.585938 -4.773438 3.171875 -4.945312 3.890625 -5.0625 C 4.515625 -5.164062 4.988281 -5.28125 5.3125 -5.40625 C 5.632812 -5.539062 5.851562 -5.6875 5.96875 -5.84375 C 6.082031 -6.007812 6.140625 -6.21875 6.140625 -6.46875 C 6.140625 -6.851562 6.003906 -7.148438 5.734375 -7.359375 C 5.460938 -7.566406 5.03125 -7.671875 4.4375 -7.671875 C 3.882812 -7.671875 3.40625 -7.5625 3 -7.34375 C 2.601562 -7.132812 2.238281 -6.816406 1.90625 -6.390625 L 1.75 -6.390625 L 1.125 -7.265625 C 1.488281 -7.734375 1.953125 -8.101562 2.515625 -8.375 C 3.078125 -8.644531 3.71875 -8.78125 4.4375 -8.78125 C 5.457031 -8.78125 6.207031 -8.554688 6.6875 -8.109375 C 7.164062 -7.671875 7.40625 -7.054688 7.40625 -6.265625 L 7.40625 -1.703125 C 7.40625 -1.222656 7.609375 -0.984375 8.015625 -0.984375 C 8.148438 -0.984375 8.28125 -1.003906 8.40625 -1.046875 L 8.515625 -1.015625 L 8.671875 -0.140625 C 8.578125 -0.078125 8.453125 -0.03125 8.296875 0 C 8.140625 0.0390625 7.984375 0.0625 7.828125 0.0625 C 7.347656 0.0625 6.988281 -0.0390625 6.75 -0.25 C 6.507812 -0.457031 6.351562 -0.765625 6.28125 -1.171875 L 6.125 -1.1875 C 5.875 -0.738281 5.539062 -0.398438 5.125 -0.171875 C 4.707031 0.0546875 4.1875 0.171875 3.5625 0.171875 Z M 3.84375 -0.859375 C 4.320312 -0.859375 4.734375 -0.96875 5.078125 -1.1875 C 5.429688 -1.40625 5.703125 -1.710938 5.890625 -2.109375 C 6.078125 -2.515625 6.171875 -2.984375 6.171875 -3.515625 L 6.171875 -4.609375 L 6.03125 -4.640625 C 5.832031 -4.503906 5.59375 -4.390625 5.3125 -4.296875 C 5.039062 -4.203125 4.660156 -4.117188 4.171875 -4.046875 C 3.671875 -3.984375 3.269531 -3.878906 2.96875 -3.734375 C 2.675781 -3.597656 2.46875 -3.421875 2.34375 -3.203125 C 2.21875 -2.984375 2.15625 -2.71875 2.15625 -2.40625 C 2.15625 -1.894531 2.300781 -1.507812 2.59375 -1.25 C 2.894531 -0.988281 3.3125 -0.859375 3.84375 -0.859375 Z M 3.84375 -0.859375 "/></g></g></g><g fill="#009664" fill-opacity="1"><g transform="translate(329.605669, 238.511293)"><g><path d="M 4.953125 0.171875 C 4.191406 0.171875 3.507812 0 2.90625 -0.34375 C 2.300781 -0.695312 1.820312 -1.210938 1.46875 -1.890625 C 1.125 -2.566406 0.953125 -3.375 0.953125 -4.3125 C 0.953125 -5.25 1.125 -6.054688 1.46875 -6.734375 C 1.820312 -7.410156 2.300781 -7.921875 2.90625 -8.265625 C 3.507812 -8.609375 4.191406 -8.78125 4.953125 -8.78125 C 5.859375 -8.78125 6.582031 -8.609375 7.125 -8.265625 C 7.664062 -7.921875 8.054688 -7.460938 8.296875 -6.890625 L 7.421875 -6.265625 L 7.265625 -6.265625 C 7.035156 -6.742188 6.734375 -7.09375 6.359375 -7.3125 C 5.992188 -7.53125 5.523438 -7.640625 4.953125 -7.640625 C 4.421875 -7.640625 3.953125 -7.515625 3.546875 -7.265625 C 3.148438 -7.015625 2.835938 -6.640625 2.609375 -6.140625 C 2.390625 -5.640625 2.28125 -5.03125 2.28125 -4.3125 C 2.28125 -3.59375 2.390625 -2.984375 2.609375 -2.484375 C 2.835938 -1.984375 3.148438 -1.609375 3.546875 -1.359375 C 3.953125 -1.109375 4.421875 -0.984375 4.953125 -0.984375 C 5.546875 -0.984375 6.039062 -1.117188 6.4375 -1.390625 C 6.832031 -1.660156 7.140625 -2.085938 7.359375 -2.671875 L 7.53125 -2.671875 L 8.359375 -2.171875 C 8.140625 -1.453125 7.738281 -0.878906 7.15625 -0.453125 C 6.582031 -0.0351562 5.847656 0.171875 4.953125 0.171875 Z M 4.953125 0.171875 "/></g></g></g><g fill="#009664" fill-opacity="1"><g transform="translate(338.486318, 238.511293)"><g><path d="M 5.828125 -1.375 L 6.234375 -0.453125 C 6.035156 -0.253906 5.769531 -0.101562 5.4375 0 C 5.101562 0.113281 4.742188 0.171875 4.359375 0.171875 C 2.710938 0.171875 1.890625 -0.664062 1.890625 -2.34375 L 1.890625 -7.578125 L 0.390625 -7.578125 L 0.390625 -8.625 L 1.890625 -8.625 L 1.890625 -10.453125 L 3.171875 -10.65625 L 3.171875 -8.625 L 5.9375 -8.625 L 5.9375 -7.578125 L 3.171875 -7.578125 L 3.171875 -2.46875 C 3.171875 -1.476562 3.597656 -0.984375 4.453125 -0.984375 C 4.921875 -0.984375 5.328125 -1.113281 5.671875 -1.375 Z M 5.828125 -1.375 "/></g></g></g><g fill="#009664" fill-opacity="1"><g transform="translate(146.327148, 148.90751)"><g><path d="M 14.828125 0 L 14.046875 -9.765625 L 13.953125 -9.765625 L 10.578125 -0.09375 L 8.328125 -0.09375 L 4.953125 -9.765625 L 4.859375 -9.765625 L 4.078125 0 L 0.3125 0 L 1.796875 -16.484375 L 5.796875 -16.484375 L 9.453125 -6.96875 L 13.109375 -16.484375 L 17.109375 -16.484375 L 18.578125 0 Z M 14.828125 0 "/></g></g></g><g fill="#009664" fill-opacity="1"><g transform="translate(167.01617, 148.90751)"><g><path d="M 9.578125 -16.484375 L 16.234375 0 L 12.1875 0 L 10.96875 -3.296875 L 4.703125 -3.296875 L 3.484375 0 L -0.5625 0 L 6.09375 -16.484375 Z M 9.6875 -6.59375 L 7.859375 -11.390625 L 7.8125 -11.390625 L 5.96875 -6.59375 Z M 9.6875 -6.59375 "/></g></g></g><g fill="#009664" fill-opacity="1"><g transform="translate(184.470257, 148.90751)"><g><path d="M 16.203125 0 L 11.03125 0 L 4.953125 -7 L 4.953125 0 L 1.203125 0 L 1.203125 -16.484375 L 4.953125 -16.484375 L 4.953125 -9.75 L 10.609375 -16.484375 L 15.171875 -16.484375 L 8.53125 -8.671875 Z M 16.203125 0 "/></g></g></g><g fill="#009664" fill-opacity="1"><g transform="translate(201.984254, 148.90751)"><g><path d="M 10.625 -16.484375 L 10.625 -13.1875 L 4.953125 -13.1875 L 4.953125 -9.90625 L 10.390625 -9.90625 L 10.390625 -6.609375 L 4.953125 -6.609375 L 4.953125 -3.296875 L 10.625 -3.296875 L 10.625 0 L 1.203125 0 L 1.203125 -16.484375 Z M 10.625 -16.484375 "/></g></g></g><g fill="#009664" fill-opacity="1"><g transform="translate(215.364737, 148.90751)"><g><path d="M 1.203125 -16.484375 L 7.09375 -16.484375 C 8.675781 -16.484375 9.96875 -16.0625 10.96875 -15.21875 C 11.96875 -14.375 12.46875 -13.164062 12.46875 -11.59375 C 12.46875 -10.375 12.164062 -9.351562 11.5625 -8.53125 C 10.957031 -7.71875 10.132812 -7.144531 9.09375 -6.8125 L 14.765625 0 L 10 0 L 4.953125 -6.515625 L 4.953125 0 L 1.203125 0 Z M 4.953125 -9.171875 L 5.390625 -9.171875 C 5.742188 -9.171875 6.039062 -9.175781 6.28125 -9.1875 C 6.519531 -9.207031 6.789062 -9.253906 7.09375 -9.328125 C 7.394531 -9.410156 7.640625 -9.523438 7.828125 -9.671875 C 8.015625 -9.816406 8.175781 -10.03125 8.3125 -10.3125 C 8.445312 -10.59375 8.515625 -10.929688 8.515625 -11.328125 C 8.515625 -11.734375 8.445312 -12.070312 8.3125 -12.34375 C 8.175781 -12.625 8.015625 -12.835938 7.828125 -12.984375 C 7.640625 -13.128906 7.394531 -13.242188 7.09375 -13.328125 C 6.789062 -13.410156 6.519531 -13.457031 6.28125 -13.46875 C 6.039062 -13.476562 5.742188 -13.484375 5.390625 -13.484375 L 4.953125 -13.484375 Z M 4.953125 -9.171875 "/></g></g></g><g fill="#009664" fill-opacity="1"><g transform="translate(231.46096, 148.90751)"><g><path d="M 7.28125 -16.78125 C 8.164062 -16.78125 9.035156 -16.648438 9.890625 -16.390625 C 10.742188 -16.128906 11.378906 -15.875 11.796875 -15.625 L 12.390625 -15.234375 L 10.875 -12.234375 C 10.75 -12.304688 10.578125 -12.40625 10.359375 -12.53125 C 10.148438 -12.664062 9.753906 -12.835938 9.171875 -13.046875 C 8.585938 -13.265625 8.039062 -13.375 7.53125 -13.375 C 6.90625 -13.375 6.421875 -13.238281 6.078125 -12.96875 C 5.742188 -12.695312 5.578125 -12.335938 5.578125 -11.890625 C 5.578125 -11.660156 5.65625 -11.445312 5.8125 -11.25 C 5.976562 -11.0625 6.253906 -10.859375 6.640625 -10.640625 C 7.023438 -10.421875 7.363281 -10.242188 7.65625 -10.109375 C 7.945312 -9.972656 8.398438 -9.773438 9.015625 -9.515625 C 10.078125 -9.054688 10.984375 -8.4375 11.734375 -7.65625 C 12.492188 -6.882812 12.875 -6.003906 12.875 -5.015625 C 12.875 -4.066406 12.703125 -3.238281 12.359375 -2.53125 C 12.015625 -1.832031 11.546875 -1.28125 10.953125 -0.875 C 10.367188 -0.476562 9.710938 -0.1875 8.984375 0 C 8.265625 0.195312 7.488281 0.296875 6.65625 0.296875 C 5.9375 0.296875 5.226562 0.222656 4.53125 0.078125 C 3.84375 -0.0664062 3.265625 -0.25 2.796875 -0.46875 C 2.328125 -0.6875 1.90625 -0.898438 1.53125 -1.109375 C 1.164062 -1.328125 0.894531 -1.507812 0.71875 -1.65625 L 0.453125 -1.875 L 2.34375 -5.03125 C 2.5 -4.90625 2.71875 -4.738281 3 -4.53125 C 3.28125 -4.320312 3.773438 -4.039062 4.484375 -3.6875 C 5.203125 -3.34375 5.832031 -3.171875 6.375 -3.171875 C 7.957031 -3.171875 8.75 -3.710938 8.75 -4.796875 C 8.75 -5.023438 8.691406 -5.234375 8.578125 -5.421875 C 8.460938 -5.617188 8.257812 -5.8125 7.96875 -6 C 7.6875 -6.195312 7.4375 -6.351562 7.21875 -6.46875 C 7 -6.582031 6.640625 -6.753906 6.140625 -6.984375 C 5.640625 -7.210938 5.269531 -7.390625 5.03125 -7.515625 C 4.03125 -8.003906 3.257812 -8.617188 2.71875 -9.359375 C 2.175781 -10.097656 1.90625 -10.894531 1.90625 -11.75 C 1.90625 -13.226562 2.445312 -14.4375 3.53125 -15.375 C 4.625 -16.3125 5.875 -16.78125 7.28125 -16.78125 Z M 7.28125 -16.78125 "/></g></g></g><g fill="#009664" fill-opacity="1"><g transform="translate(246.686516, 148.90751)"><g/></g></g><g fill="#009664" fill-opacity="1"><g transform="translate(253.936605, 148.90751)"><g/></g></g><g fill="#009664" fill-opacity="1"><g transform="translate(146.327148, 179.657508)"><g><path d="M 4.953125 -16.484375 L 4.953125 0 L 1.203125 0 L 1.203125 -16.484375 Z M 4.953125 -16.484375 "/></g></g></g><g fill="#009664" fill-opacity="1"><g transform="translate(154.276138, 179.657508)"><g><path d="M 4.953125 -10.234375 L 4.953125 0 L 1.203125 0 L 1.203125 -16.484375 L 4.953125 -16.484375 L 11.515625 -6.25 L 11.546875 -6.25 L 11.546875 -16.484375 L 15.3125 -16.484375 L 15.3125 0 L 11.546875 0 L 5 -10.234375 Z M 4.953125 -10.234375 "/></g></g></g><g fill="#009664" fill-opacity="1"><g transform="translate(172.568917, 179.657508)"><g><path d="M 4.953125 -10.234375 L 4.953125 0 L 1.203125 0 L 1.203125 -16.484375 L 4.953125 -16.484375 L 11.515625 -6.25 L 11.546875 -6.25 L 11.546875 -16.484375 L 15.3125 -16.484375 L 15.3125 0 L 11.546875 0 L 5 -10.234375 Z M 4.953125 -10.234375 "/></g></g></g><g fill="#009664" fill-opacity="1"><g transform="translate(190.861695, 179.657508)"><g><path d="M 0.453125 -8.25 C 0.453125 -10.632812 1.265625 -12.648438 2.890625 -14.296875 C 4.515625 -15.953125 6.472656 -16.78125 8.765625 -16.78125 C 11.078125 -16.78125 13.035156 -15.957031 14.640625 -14.3125 C 16.253906 -12.664062 17.0625 -10.644531 17.0625 -8.25 C 17.0625 -5.84375 16.269531 -3.816406 14.6875 -2.171875 C 13.101562 -0.523438 11.128906 0.296875 8.765625 0.296875 C 6.359375 0.296875 4.367188 -0.515625 2.796875 -2.140625 C 1.234375 -3.773438 0.453125 -5.8125 0.453125 -8.25 Z M 4.515625 -8.25 C 4.515625 -7.382812 4.644531 -6.59375 4.90625 -5.875 C 5.175781 -5.164062 5.644531 -4.566406 6.3125 -4.078125 C 6.976562 -3.585938 7.796875 -3.34375 8.765625 -3.34375 C 10.171875 -3.34375 11.226562 -3.820312 11.9375 -4.78125 C 12.65625 -5.738281 13.015625 -6.894531 13.015625 -8.25 C 13.015625 -9.59375 12.648438 -10.75 11.921875 -11.71875 C 11.191406 -12.6875 10.140625 -13.171875 8.765625 -13.171875 C 7.410156 -13.171875 6.363281 -12.6875 5.625 -11.71875 C 4.882812 -10.75 4.515625 -9.59375 4.515625 -8.25 Z M 4.515625 -8.25 "/></g></g></g><g fill="#009664" fill-opacity="1"><g transform="translate(210.172873, 179.657508)"><g><path d="M 6.359375 0 L -0.5625 -16.484375 L 3.671875 -16.484375 L 7.828125 -5.65625 L 11.984375 -16.484375 L 16.234375 -16.484375 L 9.3125 0 Z M 6.359375 0 "/></g></g></g><g fill="#009664" fill-opacity="1"><g transform="translate(227.62696, 179.657508)"><g><path d="M 9.578125 -16.484375 L 16.234375 0 L 12.1875 0 L 10.96875 -3.296875 L 4.703125 -3.296875 L 3.484375 0 L -0.5625 0 L 6.09375 -16.484375 Z M 9.6875 -6.59375 L 7.859375 -11.390625 L 7.8125 -11.390625 L 5.96875 -6.59375 Z M 9.6875 -6.59375 "/></g></g></g><g fill="#009664" fill-opacity="1"><g transform="translate(245.081047, 179.657508)"><g><path d="M 0.15625 -13.1875 L 0.15625 -16.484375 L 11.75 -16.484375 L 11.75 -13.1875 L 7.828125 -13.1875 L 7.828125 0 L 4.078125 0 L 4.078125 -13.1875 Z M 0.15625 -13.1875 "/></g></g></g><g fill="#009664" fill-opacity="1"><g transform="translate(258.78102, 179.657508)"><g><path d="M 4.953125 -16.484375 L 4.953125 0 L 1.203125 0 L 1.203125 -16.484375 Z M 4.953125 -16.484375 "/></g></g></g><g fill="#009664" fill-opacity="1"><g transform="translate(266.730006, 179.657508)"><g><path d="M 0.453125 -8.25 C 0.453125 -10.632812 1.265625 -12.648438 2.890625 -14.296875 C 4.515625 -15.953125 6.472656 -16.78125 8.765625 -16.78125 C 11.078125 -16.78125 13.035156 -15.957031 14.640625 -14.3125 C 16.253906 -12.664062 17.0625 -10.644531 17.0625 -8.25 C 17.0625 -5.84375 16.269531 -3.816406 14.6875 -2.171875 C 13.101562 -0.523438 11.128906 0.296875 8.765625 0.296875 C 6.359375 0.296875 4.367188 -0.515625 2.796875 -2.140625 C 1.234375 -3.773438 0.453125 -5.8125 0.453125 -8.25 Z M 4.515625 -8.25 C 4.515625 -7.382812 4.644531 -6.59375 4.90625 -5.875 C 5.175781 -5.164062 5.644531 -4.566406 6.3125 -4.078125 C 6.976562 -3.585938 7.796875 -3.34375 8.765625 -3.34375 C 10.171875 -3.34375 11.226562 -3.820312 11.9375 -4.78125 C 12.65625 -5.738281 13.015625 -6.894531 13.015625 -8.25 C 13.015625 -9.59375 12.648438 -10.75 11.921875 -11.71875 C 11.191406 -12.6875 10.140625 -13.171875 8.765625 -13.171875 C 7.410156 -13.171875 6.363281 -12.6875 5.625 -11.71875 C 4.882812 -10.75 4.515625 -9.59375 4.515625 -8.25 Z M 4.515625 -8.25 "/></g></g></g><g fill="#009664" fill-opacity="1"><g transform="translate(286.041188, 179.657508)"><g><path d="M 4.953125 -10.234375 L 4.953125 0 L 1.203125 0 L 1.203125 -16.484375 L 4.953125 -16.484375 L 11.515625 -6.25 L 11.546875 -6.25 L 11.546875 -16.484375 L 15.3125 -16.484375 L 15.3125 0 L 11.546875 0 L 5 -10.234375 Z M 4.953125 -10.234375 "/></g></g></g><g fill="#009664" fill-opacity="1"><g transform="translate(146.327148, 210.407506)"><g><path d="M 9.578125 -16.484375 L 16.234375 0 L 12.1875 0 L 10.96875 -3.296875 L 4.703125 -3.296875 L 3.484375 0 L -0.5625 0 L 6.09375 -16.484375 Z M 9.6875 -6.59375 L 7.859375 -11.390625 L 7.8125 -11.390625 L 5.96875 -6.59375 Z M 9.6875 -6.59375 "/></g></g></g><g fill="#009664" fill-opacity="1"><g transform="translate(163.781235, 210.407506)"><g><path d="M 13.84375 0 L 11.21875 -9.25 L 8.578125 0 L 4.390625 0 L -0.296875 -16.484375 L 3.875 -16.484375 L 6.6875 -5.171875 L 6.796875 -5.171875 L 9.796875 -16.484375 L 12.625 -16.484375 L 15.625 -5.171875 L 15.734375 -5.171875 L 18.546875 -16.484375 L 22.703125 -16.484375 L 18 0 Z M 13.84375 0 "/></g></g></g><g fill="#009664" fill-opacity="1"><g transform="translate(187.964768, 210.407506)"><g><path d="M 9.578125 -16.484375 L 16.234375 0 L 12.1875 0 L 10.96875 -3.296875 L 4.703125 -3.296875 L 3.484375 0 L -0.5625 0 L 6.09375 -16.484375 Z M 9.6875 -6.59375 L 7.859375 -11.390625 L 7.8125 -11.390625 L 5.96875 -6.59375 Z M 9.6875 -6.59375 "/></g></g></g><g fill="#009664" fill-opacity="1"><g transform="translate(205.418856, 210.407506)"><g><path d="M 1.203125 -16.484375 L 7.09375 -16.484375 C 8.675781 -16.484375 9.96875 -16.0625 10.96875 -15.21875 C 11.96875 -14.375 12.46875 -13.164062 12.46875 -11.59375 C 12.46875 -10.375 12.164062 -9.351562 11.5625 -8.53125 C 10.957031 -7.71875 10.132812 -7.144531 9.09375 -6.8125 L 14.765625 0 L 10 0 L 4.953125 -6.515625 L 4.953125 0 L 1.203125 0 Z M 4.953125 -9.171875 L 5.390625 -9.171875 C 5.742188 -9.171875 6.039062 -9.175781 6.28125 -9.1875 C 6.519531 -9.207031 6.789062 -9.253906 7.09375 -9.328125 C 7.394531 -9.410156 7.640625 -9.523438 7.828125 -9.671875 C 8.015625 -9.816406 8.175781 -10.03125 8.3125 -10.3125 C 8.445312 -10.59375 8.515625 -10.929688 8.515625 -11.328125 C 8.515625 -11.734375 8.445312 -12.070312 8.3125 -12.34375 C 8.175781 -12.625 8.015625 -12.835938 7.828125 -12.984375 C 7.640625 -13.128906 7.394531 -13.242188 7.09375 -13.328125 C 6.789062 -13.410156 6.519531 -13.457031 6.28125 -13.46875 C 6.039062 -13.476562 5.742188 -13.484375 5.390625 -13.484375 L 4.953125 -13.484375 Z M 4.953125 -9.171875 "/></g></g></g><g fill="#009664" fill-opacity="1"><g transform="translate(221.515079, 210.407506)"><g><path d="M 1.203125 -16.484375 L 5.96875 -16.484375 C 8.257812 -16.484375 10.21875 -15.703125 11.84375 -14.140625 C 13.46875 -12.578125 14.28125 -10.613281 14.28125 -8.25 C 14.28125 -5.882812 13.472656 -3.914062 11.859375 -2.34375 C 10.242188 -0.78125 8.28125 0 5.96875 0 L 1.203125 0 Z M 4.953125 -3.359375 L 5.53125 -3.359375 C 6.90625 -3.359375 8.03125 -3.820312 8.90625 -4.75 C 9.78125 -5.675781 10.222656 -6.835938 10.234375 -8.234375 C 10.234375 -9.628906 9.796875 -10.789062 8.921875 -11.71875 C 8.046875 -12.65625 6.914062 -13.125 5.53125 -13.125 L 4.953125 -13.125 Z M 4.953125 -3.359375 "/></g></g></g></svg>