<svg id="Layer_1" data-name="Layer 1" xmlns="http://www.w3.org/2000/svg" viewBox="0 0 1289.39 1268.25"><defs><style>.cls-1{fill:#fff;}.cls-2{fill:#0e7460;}.cls-3{fill:#61afe1;}.cls-4{fill:#b0d841;}</style></defs><title>3Artboard 15</title><rect class="cls-1" x="-11377.55" y="-7325.37" width="16366.95" height="16422.36"/><polygon class="cls-2" points="1084.09 836.82 1063.62 855.5 1063.67 846.29 1084.09 836.82"/><path class="cls-3" d="M860.08,275.1V924.67a73.73,73.73,0,0,1-73.73,73.73h0a73.73,73.73,0,0,1-73.73-73.73V595.47L574,750.73,433.12,593V898.63h0A153.94,153.94,0,0,1,279.18,744.69V278.8H417.71L572.32,451.92,715.93,277.56Z"/><path class="cls-3" d="M638.26,255.36c28.5-3.6,76.93-52.58,156.9-60.88s134.21,10.79,134.21,10.79c-65.31-179-292.5-174.06-292.5-174.06C788.79,102.33,814.53,187,813.14,186.73c-19.37-24.9-114,13.56-114,13.56,48.7-52.85-29.61-133.38-29.61-133.38,33.76,122-48.71,173.5-49.54,173.78,15.5-5.81,72.78-37.36,72.78-37.36C688.34,227.68,638.26,255.36,638.26,255.36Z"/><path class="cls-4" d="M1038.78,913.48c-4.78-2.54-7.36-6.14-7.63-11.57-.34-6.67-1.6-13.35-1.27-20,.18-3.5,1.93-8.18,4.61-10.11,14.72-10.65,29.92-20.64,45-30.79,5.73-3.85,6.62-6.29,4.18-12.75q-8.61-22.81-17.26-45.62c-2.43-6.4-4.57-7.66-11.6-7.15-18.2,1.31-36.39,2.85-54.61,3.65a16.8,16.8,0,0,1-11-4.16c-4.31-4-7.28-9.43-11-14.14-3.15-4-3.13-8-1.11-12.65,7.1-16.22,14-32.55,20.86-48.86,2.68-6.35,2-8.37-3.39-12.43Q975,672.17,955.51,657.29c-7.24-5.53-9.35-5.59-16.83,0-11.07,8.28-22,16.73-33.21,24.81-7.87,5.67-34.82,6.07-63,2.29l-68.2-26.8c-2.75-1.09-5.38-2.17-7.9-3.26a150.06,150.06,0,0,1-25.66-13.6,58.7,58.7,0,0,1-18.64-20,69.2,69.2,0,0,1-8-26.34,351,351,0,0,1-1.6-36.88,201,201,0,0,1,3.2-36.36A88.33,88.33,0,0,1,727.39,490,71.24,71.24,0,0,1,749.76,469q13.83-8.41,36.23-8.43,41.57,0,59.13,26.88t17.58,63.75v24.23H971.39V522.71q0-65.33-49-115.92a191.31,191.31,0,0,0-58.07-39Q830.74,353.06,790.25,353q-47.94,0-82.57,16.34t-57,43.73q-23.45,27.42-35.16,65.33a269.76,269.76,0,0,0-11.72,80.09q0,68,22.27,114c.57,1.17,1.12,2.35,1.71,3.5q23.65,46.31,92.49,74.6C800,766.22,896,793.8,929.82,865.3c26.75,56.48,41.62,108-24.42,180.63-65.33,71.87-186.72,52.82-250-21.16a173.43,173.43,0,0,1-41.08-126.92c0-.26,0-.51.07-.77H487.57q.65,22.71,1.37,45.41c.24,7.65,1.53,9.15,9.33,10.85,17.11,3.73,34.2,7.51,51.35,11.06,5.22,1.08,8.44,3.75,9.94,8.8,1.92,6.4,4,12.77,6.15,19.07,1.84,5.28,1,9.7-2.68,14.05-11.69,13.84-23.13,27.9-34.75,41.8-3.17,3.78-4.07,7.59-1.16,11.83,9.22,13.43,18.62,26.76,27.62,40.33,3.34,5,6.78,5.49,12.22,3.35,16.6-6.53,33.45-12.46,50.14-18.79,5.14-1.94,9.51-1.39,13.71,2.15,5.83,4.92,11.65,9.88,17.8,14.39,5,3.65,6.65,8,5.87,14-2.23,17.37-4.13,34.78-6.14,52.17-.78,6.79.45,8.92,7,11.6,13.65,5.58,27.36,11,41,16.61,7.62,3.11,9.49,2.68,14.35-3.74,10.6-14,21.24-28,31.73-42.07a12,12,0,0,1,11.83-5.11c8.16.89,16.33,2,24.52,2.3,7.18.28,11.17,3.69,14.12,9.91,7.37,15.5,15.28,30.75,22.84,46.16,2.45,5,5.92,6.69,11.51,5.52,14.81-3.1,29.66-6,44.57-8.67,5.86-1,8.44-3.92,8.82-9.72,1.16-17.83,2.71-35.63,3.84-53.46.33-5.27,2.47-8.8,7.18-11.16,7.81-3.91,15.61-7.86,23.24-12.08,4.69-2.59,8.81-2.31,13.33.42,15.1,9.12,30.32,18,45.48,27.05,6.33,3.76,8.59,3.88,14-1.31,11.29-10.76,22.28-21.84,33.36-32.83,3.23-3.2,3.63-6.71,1.35-10.81-9-16.12-17.66-32.39-26.69-48.47-2.59-4.61-2.72-8.69,0-13.23,3.85-6.54,7.62-13.15,11-19.93,2.56-5.11,6.19-7.45,12-7.54,17.88-.3,35.75-1,53.63-1.41,5.41-.12,8.38-2.55,9.5-7.78,3.29-15.36,6.78-30.68,10.12-46"/></svg>