<?xml version="1.0" encoding="UTF-8" standalone="no"?>
<!-- Created with Inkscape (http://www.inkscape.org/) -->

<svg
   version="1.1"
   id="svg2"
   width="1572.4268"
   height="478.70401"
   viewBox="0 0 1572.4268 478.70401"
   sodipodi:docname="logo.ai"
   xmlns:inkscape="http://www.inkscape.org/namespaces/inkscape"
   xmlns:sodipodi="http://sodipodi.sourceforge.net/DTD/sodipodi-0.dtd"
   xmlns="http://www.w3.org/2000/svg"
   xmlns:svg="http://www.w3.org/2000/svg">
  <defs
     id="defs6">
    <clipPath
       clipPathUnits="userSpaceOnUse"
       id="clipPath16">
      <path
         d="M 0,359.028 H 1179.322 V 0 H 0 Z"
         id="path14" />
    </clipPath>
  </defs>
  <sodipodi:namedview
     id="namedview4"
     pagecolor="#ffffff"
     bordercolor="#000000"
     borderopacity="0.25"
     inkscape:showpageshadow="2"
     inkscape:pageopacity="0.0"
     inkscape:pagecheckerboard="0"
     inkscape:deskcolor="#d1d1d1" />
  <g
     id="g8"
     inkscape:groupmode="layer"
     inkscape:label="logo"
     transform="matrix(1.3333333,0,0,-1.3333333,0,478.704)">
    <g
       id="g10">
      <g
         id="g12"
         clip-path="url(#clipPath16)">
        <g
           id="g18"
           transform="translate(176.4775,151.2289)">
          <path
             d="m 0,0 c 0.573,-0.322 1.356,-0.356 1.898,-0.411 2.379,-0.24 4.781,-0.249 7.17,-0.392 0.89,-0.053 3.054,0.022 4.43,-0.047 -3.035,-3.178 -2.477,-3.571 -4.814,-3.575 -4.786,-0.148 -9.57,-0.39 -14.356,-0.443 -4.044,-0.045 -7.737,1.199 -11.505,2.553 -3.485,1.252 -7.081,2.073 -10.816,1.961 -6.016,-0.181 -11.005,-2.352 -13.758,-8.085 -1.419,-2.955 -3.853,-4.651 -6.832,-5.611 -0.541,-0.175 -1.241,-0.454 -2.044,-0.454 0.051,2.37 0.748,4.355 1.909,5.852 0.974,1.256 2.15,2.534 3.289,3.646 10.702,10.446 22.59,19.114 35.901,25.938 7.287,3.735 15.032,6.184 22.949,8.138 0.895,0.222 2.218,0.523 4.232,0.755 C 10.767,20.3 4.697,11.065 -0.344,1.32 -0.583,0.858 -0.454,0.255 0,0 m -37.089,35.66 c 2.325,3.62 3.396,4.951 5.697,8.587 2.316,3.659 4.045,7.607 5.119,11.807 1.622,6.344 2.326,14.89 -2.174,20.463 1.968,-0.798 2.62,-1.074 3.289,-1.349 7.175,-2.941 13.634,-7.123 18.839,-12.935 3.701,-4.132 6.167,-8.599 6.991,-14.133 0.113,-0.756 0.33,-3.176 0.33,-4.266 -0.963,1.018 -2.202,2.329 -2.394,2.532 -3.072,3.231 -7.113,2.666 -11.009,1.541 -7.78,-2.247 -13.923,-6.361 -20.239,-11.341 -1.99,-1.569 -7.037,-5.86 -9.266,-8.2 1.129,2.036 4.129,5.78 4.817,7.294 M 57.507,21.237 c -2.913,7.075 -8.323,12.934 -15.276,16.266 -6.238,2.991 -12.825,4.858 -19.733,5.615 -2.635,0.289 -5.147,0.303 -8.78,0.303 1.029,1.966 3.518,2.571 4.976,2.918 2.803,0.666 5.331,0.825 8.469,0.66 3.468,-0.331 4.676,0.094 6.316,1.569 5.581,5.018 9.206,11.053 9.028,18.853 -0.077,3.392 -0.765,6.781 -1.789,9.991 -2.5,7.834 -7.657,13.855 -14.973,17.67 -3.992,2.081 -8.373,3.463 -12.77,4.376 -9.9,2.055 -19.936,2.44 -30,2.504 -19.489,0.123 -60.335,-0.065 -61.851,-0.066 -3.443,-0.003 -5.424,-2.674 -5.676,-6.099 -0.093,-1.272 -0.083,-131.648 -0.021,-132.763 0.209,-3.76 2.137,-5.896 5.853,-6.353 1.519,0.03 46.423,0.03 67.535,0.03 5.904,0.02 8.905,-0.115 14.802,0.206 12.302,0.66 19.643,2.586 27.495,5.394 5.759,2.059 11.004,5.057 15.688,9.027 5.734,4.86 10.408,11.115 12.551,18.386 3.184,10.802 2.444,21.095 -1.844,31.513"
             style="fill:#183864;fill-opacity:1;fill-rule:nonzero;stroke:none"
             id="path20" />
        </g>
        <g
           id="g22"
           transform="translate(619.2666,253.1909)">
          <path
             d="m 0,0 c 2.941,0.042 31.155,-0.005 44.103,0 5.373,0.002 5.25,-0.517 5.806,-5.752 2.664,-25.055 -1.717,-49.047 -11.325,-72.186 -0.612,-1.473 -1.27,-3.004 -2.044,-4.396 -1.916,-3.445 -4.384,-6.19 -8.257,-7.494 -0.445,-0.15 -0.671,-0.247 -1.548,-0.557 -0.138,-0.049 -0.601,-0.226 -0.702,-0.351 -0.328,-0.97 0.494,-1.423 1.197,-1.796 0.84,-0.445 1.962,-1.074 2.881,-1.221 8.273,-1.326 15.931,-0.257 22.27,5.859 2.784,2.686 5.178,5.685 7.046,9.049 2.324,4.188 4.564,8.43 6.642,12.745 8.564,17.775 18.825,34.496 30.896,50.102 0.587,0.759 1.197,1.499 1.774,2.265 6.358,8.426 14.657,13.089 25.138,13.678 C 129.719,0.038 136.02,0 141.943,0 c 2.551,-0.037 3.357,-0.583 3.526,-3.213 0.006,-1.281 -0.011,-91.267 -0.018,-134.748 0,-1.597 -0.044,-3.059 -0.064,-4.793 -0.018,-1.433 -0.358,-2.35 -2.381,-2.433 -0.952,-0.039 -43.837,-0.062 -46.892,-0.062 -0.287,1.934 -0.909,4.953 -1.06,7.159 -0.842,12.32 -0.465,24.634 1.493,36.809 2.058,12.811 8.766,25.373 16.555,32.749 0.644,0.655 2.127,1.927 3.137,2.863 -2.249,1.354 -4.84,1.738 -7.074,1.375 -3.03,-0.494 -5.768,-1.838 -8.38,-3.468 -4.972,-3.102 -8.944,-7.191 -12.096,-12.109 -2.6,-4.058 -4.715,-8.183 -6.289,-12.716 -2.356,-6.787 -4.45,-13.885 -6.652,-20.724 -1.616,-5.017 -3.073,-10.086 -4.783,-15.069 -0.878,-2.557 -2.06,-5.024 -3.273,-7.448 -2.641,-5.277 -7.364,-8.077 -13.076,-8.915 -3.153,-0.462 -6.306,-0.534 -9.493,-0.553 -13.106,-0.082 -26.244,0.137 -39.351,0.046 -6.776,0.028 -5.79,0.157 -5.79,5.875 C -0.006,-94.616 0,-1.937 0,0"
             style="fill:#183864;fill-opacity:1;fill-rule:nonzero;stroke:none"
             id="path24" />
        </g>
        <g
           id="g26"
           transform="translate(463.9927,253.1909)">
          <path
             d="m 0,0 c 3.087,0 55.303,0.016 80.23,0 8.882,0 14.097,-0.562 21.009,-2.768 m -51.03,-17.558 c 1.734,-1.548 3.882,-3.295 5.02,-4.501 8.199,-8.686 12.5,-18.848 12.01,-30.838 -0.285,-6.956 -1.839,-13.578 -4.459,-19.981 -2.246,-5.49 -4.866,-10.569 -8.051,-15.564 -0.458,-0.72 -1.568,-2.519 -2.807,-4.294 0.699,0.306 2.9,1.703 3.592,2.036 4.314,2.081 8.833,4.449 13.211,6.386 6.141,2.716 12.124,5.188 19.156,6.11 11.615,2.257 18.908,-0.124 22.066,-4.17 0.092,0.099 1.306,-1.702 1.322,-1.589 0.063,0.464 -0.556,3.414 -0.633,3.863 -2.541,14.851 -8.679,28.067 -19.122,39.093 -10.721,11.319 -23.554,17.725 -38.477,22.645 -0.269,0.08 -1.569,0.516 -2.828,0.804 m 9.97,-100.816 c 1.197,-4.211 2.785,-8.481 3.456,-12.187 1.003,-3.955 1.87,-7.836 1.952,-11.923 -2.118,0.002 -60.7,0.056 -65.599,0.002 0,1.128 -0.002,5.802 -0.002,6.92 0,44.106 -0.035,136.239 0.014,138.33 3.087,0 55.303,0.016 80.23,0 7.234,-0.004 14.097,-0.562 21.009,-2.768 18.401,-5.872 37.668,-23.917 42.548,-47.457 7.617,-33.775 -11.567,-65.178 -43.245,-75.499 -7.747,-2.378 -15.675,-3.4 -23.891,-2.697 -3.886,0.268 -7.803,1.756 -11.172,3.691 -1.349,0.773 -3.467,2.566 -5.3,3.588"
             style="fill:#183864;fill-opacity:1;fill-rule:nonzero;stroke:none"
             id="path28" />
        </g>
        <g
           id="g30"
           transform="translate(812.2461,253.1909)">
          <path
             d="m 0,0 c 6.826,0.22 75.434,0.014 76.852,0 0.339,-0.788 33.969,-140.52 34.362,-145.197 -4.046,-0.027 -40.503,-0.083 -49.45,-0.053 -1.589,0.004 -2.555,-0.084 -4.898,0.122 -3.55,0.33 -4.882,1.899 -5.955,5.738 -0.499,1.843 -0.76,4.113 -0.963,6.015 -0.763,7.147 -1.39,13.988 -2.071,21.171 -1.391,13.673 -3.081,27.196 -6.833,40.479 -1.869,6.621 -3.996,12.991 -7.184,19.115 -1.386,2.666 -4.234,7.052 -6.274,9.413 0.599,-2.291 1.559,-7.818 1.692,-8.766 0.978,-6.955 2.002,-12.739 2.725,-19.72 1.418,-13.704 1.177,-27.207 0.061,-41.016 -0.646,-6.676 -1.427,-13.216 -2.352,-19.858 -0.415,-2.979 -1.099,-6.093 -2.002,-8.974 -0.75,-2.394 -1.942,-3.732 -4.554,-3.719 -17.576,0.08 -34.843,-0.038 -52.419,-0.002 -0.924,0.002 -3.815,0.002 -4.922,0.014 0.743,3.179 1.421,6.336 1.744,7.706 5.004,21.297 9.774,40.041 14.795,61.334 5.645,23.934 8.892,38.892 14.557,62.822 C -2.725,-11.838 -0.457,-1.689 0,0"
             style="fill:#183864;fill-opacity:1;fill-rule:nonzero;stroke:none"
             id="path32" />
        </g>
        <g
           id="g34"
           transform="translate(1029.3682,156.5717)">
          <path
             d="m 0,0 c -0.39,1.011 -1.406,3.121 -3.005,3.643 -3.051,0.995 -5.342,1.047 -8.597,0.589 -5.895,-0.831 -10.669,-2.2 -16.182,-4.356 -2.824,-1.104 -5.778,-2.521 -8.567,-3.715 -0.7,-0.3 -2.9,-1.569 -3.85,-2.064 0.454,0.908 0.763,1.465 1.083,2.03 1.014,1.798 2.032,3.594 3.042,5.394 4.078,7.278 7.559,14.796 9.302,23.02 2.116,9.995 1.876,18.346 -3.013,27.56 -0.273,0.514 -2.304,3.855 -2.58,4.624 C -9.867,42.564 0.825,17.216 0,0 M 52.426,-46.762 C 41.552,-0.092 30.658,46.574 19.749,93.236 c -0.284,1.218 -0.75,2.334 -1.078,3.383 -0.528,0.202 -76.398,0.377 -76.899,0 -0.675,-1.705 -34.228,-144.137 -34.358,-145.25 1.484,0 60.014,-0.139 60.939,0.012 0.402,3.313 1.076,5.683 1.137,9.864 -0.099,3.842 -3.034,5.243 -6.502,4.861 -2.023,-0.315 -2.682,-0.629 -4.644,-1.291 -1.492,-0.503 -3.407,-1.465 -5.109,-2.332 -0.372,-0.186 -3.979,-2.021 -4.16,-2.239 -0.075,0.186 4.74,4.283 5.473,4.812 9.613,6.938 19.66,12.839 30.603,17.467 3.257,1.378 6.744,2.316 10.159,3.329 0.912,0.27 1.837,0.491 2.78,0.621 1.071,0.149 2.237,0.265 3.324,0.306 -1.607,-1.297 -6.543,-8.407 -8.722,-11.756 -2.543,-3.909 -5.041,-8.448 -5.862,-13.107 -0.559,-3.173 -0.309,-7.205 0.021,-10.528 0.64,-0.211 65.548,-0.129 65.941,0 -0.258,1.455 -0.307,1.592 -0.366,1.85"
             style="fill:#183864;fill-opacity:1;fill-rule:nonzero;stroke:none"
             id="path36" />
        </g>
        <path
           d="m 256.875,107.94 h 36.477 v 97.017 h -36.477 z"
           style="fill:#183864;fill-opacity:1;fill-rule:nonzero;stroke:none"
           id="path38" />
        <g
           id="g40"
           transform="translate(453.8784,248.6484)">
          <path
             d="m 0,0 c -0.201,2.746 -0.95,4.234 -3.605,4.519 -0.952,0.101 -136.204,0.218 -137.943,0.023 -2.147,-0.239 -3.035,-1.243 -3.235,-3.323 -0.076,-0.792 -0.024,-1.596 -0.043,-2.394 -0.14,-5.747 -0.315,-11.494 -0.409,-17.242 -0.032,-1.91 0.016,-3.838 0.241,-5.732 0.577,-4.855 3.199,-8.315 7.688,-10.165 2.194,-0.905 4.542,-1.557 6.883,-1.964 10.711,-1.864 21.287,-1.334 31.767,1.435 0.892,0.236 3.606,1.163 5.257,2.051 -1.631,-1.342 -3.523,-3.666 -3.963,-4.252 -3.055,-4.624 -4.5,-8.216 -5.642,-13.514 -0.955,-4.904 -0.984,-9.801 -0.964,-14.753 0.043,-10.541 0.045,-18.579 -0.082,-29.119 -0.117,-9.741 -0.193,-22.117 -0.594,-31.852 -0.152,-3.712 0.93,-6.56 3.73,-8.73 2.01,-1.557 4.297,-2.752 6.358,-4.249 1.371,-0.996 2.969,-1.451 4.626,-1.447 11.821,0.027 23.806,0.007 35.627,0.04 0.932,0.002 2.045,0.106 2.762,0.586 2.564,1.286 4.841,2.845 6.968,4.753 2.21,1.984 3.493,4.988 3.579,8.014 0.049,1.755 0.072,3.514 0.022,5.269 -0.381,13.412 -0.981,26.88 -1.406,40.292 -0.263,8.302 -0.398,16.596 -0.792,24.893 -0.42,8.853 -1.899,16.486 -9.512,23.393 -0.88,0.821 -1.588,1.907 -2.312,2.895 -0.552,0.665 -1.231,1.788 -1.022,1.992 0.588,-0.517 3.147,-2.098 3.875,-2.437 6.281,-3.419 12.89,-5.331 20.036,-5.669 8.242,-0.389 16.226,0.883 24.109,3.055 2.161,0.62 2.945,1.019 4.211,1.776 2.257,1.241 3.606,3.013 3.683,5.98 0.071,0.954 0.052,1.916 0.055,2.874 0.025,6.709 0.045,13.418 0.065,20.127 C 0.021,-1.916 0.07,-0.954 0,0"
             style="fill:#183864;fill-opacity:1;fill-rule:nonzero;stroke:none"
             id="path42" />
        </g>
        <g
           id="g44"
           transform="translate(244.3877,250.2187)">
          <path
             d="m 0,0 c 0,0 45.193,0.991 58.184,-34.624 0,0 -10.789,3.798 -26.698,2.147 -15.908,-1.651 -25.541,-11.395 -31.211,-12.11 0,0 9.964,5.504 10.845,10.348 0,0 -11.395,-6.275 -14.477,-7.431 0.165,0.055 16.568,10.294 9.853,34.569 0,0 15.578,-16.018 5.889,-26.532 0,0 18.826,7.651 22.679,2.697 C 35.339,-30.991 30.22,-14.147 0,0"
             style="fill:#61b0e2;fill-opacity:1;fill-rule:nonzero;stroke:none"
             id="path46" />
        </g>
      </g>
    </g>
  </g>
</svg>
