<svg width="350" height="350" viewBox="0 0 350 350" fill="none" xmlns="http://www.w3.org/2000/svg">
<path d="M350 175C350 209.612 339.736 243.446 320.507 272.225C301.278 301.003 273.947 323.434 241.97 336.679C209.993 349.924 174.806 353.39 140.859 346.637C106.912 339.885 75.7305 323.218 51.2563 298.744C26.7821 274.269 10.115 243.087 3.36257 209.141C-3.38984 175.194 0.0757574 140.007 13.3211 108.03C26.5665 76.0533 48.9967 48.722 77.7753 29.4928C106.554 10.2635 140.388 -1.69169e-05 175 0L175 67.2143C153.682 67.2143 132.843 73.5358 115.118 85.3794C97.3922 97.2231 83.5771 114.057 75.419 133.752C67.261 153.447 65.1264 175.12 69.2854 196.028C73.4443 216.936 83.7099 236.142 98.784 251.216C113.858 266.29 133.064 276.556 153.972 280.715C174.88 284.874 196.553 282.739 216.248 274.581C235.943 266.423 252.777 252.608 264.621 234.883C276.464 217.157 282.786 196.318 282.786 175L350 175Z" fill="white"/>
</svg>
