<svg width="330" height="330" viewBox="0 0 330 330" fill="none" xmlns="http://www.w3.org/2000/svg">
<path d="M0 165C2.85295e-06 132.366 9.67709 100.465 27.8075 73.3309C45.938 46.1968 71.7074 25.0483 101.857 12.5599C132.007 0.071412 165.183 -3.19613 197.19 3.17043C229.197 9.537 258.597 25.2517 281.673 48.3274C304.748 71.4031 320.463 100.803 326.83 132.81C333.196 164.817 329.929 197.993 317.44 228.143C304.952 258.293 283.803 284.062 256.669 302.193C229.535 320.323 197.634 330 165 330L165 270.048C185.776 270.048 206.086 263.887 223.361 252.344C240.636 240.801 254.101 224.395 262.051 205.2C270.002 186.005 272.082 164.883 268.029 144.506C263.976 124.129 253.971 105.411 239.28 90.7201C224.589 76.029 205.871 66.0241 185.494 61.9708C165.117 57.9176 143.995 59.9978 124.8 67.9487C105.605 75.8995 89.1989 89.3637 77.6561 106.639C66.1133 123.914 59.9524 144.224 59.9524 165L0 165Z" fill="#49B6FF"/>
</svg>
