<svg width="330" height="330" viewBox="0 0 330 330" fill="none" xmlns="http://www.w3.org/2000/svg">
<path d="M165 330C132.366 330 100.465 320.323 73.3309 302.192C46.1968 284.062 25.0483 258.293 12.5599 228.143C0.0714148 197.993 -3.19613 164.817 3.17043 132.81C9.537 100.803 25.2517 71.403 48.3274 48.3274C71.4031 25.2517 100.803 9.53698 132.81 3.17042C164.817 -3.19613 197.993 0.071422 228.143 12.5599C258.293 25.0484 284.062 46.1968 302.193 73.3309C320.323 100.465 330 132.366 330 165L270.048 165C270.048 144.224 263.887 123.914 252.344 106.639C240.801 89.3637 224.395 75.8995 205.2 67.9487C186.005 59.9979 164.883 57.9176 144.506 61.9708C124.129 66.0241 105.411 76.0289 90.7201 90.7201C76.029 105.411 66.0241 124.129 61.9708 144.506C57.9176 164.883 59.9979 186.005 67.9487 205.2C75.8995 224.395 89.3637 240.801 106.639 252.344C123.914 263.887 144.224 270.048 165 270.048L165 330Z" fill="#0057FF"/>
</svg>
