<?xml version="1.0" encoding="UTF-8" standalone="no"?>
<svg
   xmlns:dc="http://purl.org/dc/elements/1.1/"
   xmlns:cc="http://creativecommons.org/ns#"
   xmlns:rdf="http://www.w3.org/1999/02/22-rdf-syntax-ns#"
   xmlns:svg="http://www.w3.org/2000/svg"
   xmlns="http://www.w3.org/2000/svg"
   viewBox="0 0 500 500"
   height="500"
   width="500"
   xml:space="preserve"
   id="svg2"
   version="1.1"><metadata
     id="metadata8"><rdf:RDF><cc:Work
         rdf:about=""><dc:format>image/svg+xml</dc:format><dc:type
           rdf:resource="http://purl.org/dc/dcmitype/StillImage" /></cc:Work></rdf:RDF></metadata><defs
     id="defs6"><clipPath
       id="clipPath14"
       clipPathUnits="userSpaceOnUse"><path
         id="path12"
         d="M 0,8.039989 H 375 V 383.03998 H 0 Z" /></clipPath><clipPath
       id="clipPath24"
       clipPathUnits="userSpaceOnUse"><path
         style="clip-rule:evenodd"
         id="path22"
         d="M 0,0 H 1562.5 V 1562.5 H 0 Z" /></clipPath><clipPath
       id="clipPath36"
       clipPathUnits="userSpaceOnUse"><path
         style="clip-rule:evenodd"
         id="path34"
         d="M 0,0 H 1562.5 V 1562.5 H 0 Z" /></clipPath><clipPath
       id="clipPath48"
       clipPathUnits="userSpaceOnUse"><path
         id="path46"
         d="M 0,0 H 1562.5 V 1562.5 H 0 Z" /></clipPath><clipPath
       id="clipPath54"
       clipPathUnits="userSpaceOnUse"><path
         id="path52"
         d="M 0,0 H 1562.5 V 1562.5 H 0 Z" /></clipPath><clipPath
       id="clipPath60"
       clipPathUnits="userSpaceOnUse"><path
         id="path58"
         d="M 915.51611,461.90295 1382.3757,945.6452 1216.1502,1106.0695 749.29059,622.32721 Z" /></clipPath><clipPath
       id="clipPath66"
       clipPathUnits="userSpaceOnUse"><path
         id="path64"
         d="m 965.42889,513.62073 366.68551,379.94555 c 13.2377,13.71643 20.4844,32.12976 20.1459,51.18909 -0.3384,19.05945 -8.2344,37.2038 -21.9508,50.44153 l -62.7901,60.5986 c -13.7164,13.2377 -32.1296,20.4844 -51.1891,20.1459 -19.0594,-0.3385 -37.2037,-8.2344 -50.4414,-21.9509 L 799.20337,674.04492 c -13.23767,-13.71637 -20.48438,-32.12964 -20.14587,-51.18909 0.3385,-19.05944 8.23443,-37.20373 21.95086,-50.44146 l 62.78998,-60.5986 c 13.71643,-13.23771 32.1297,-20.48441 51.18909,-20.14591 19.05945,0.3385 37.20379,8.23444 50.44146,21.95087 z" /></clipPath><clipPath
       id="clipPath78"
       clipPathUnits="userSpaceOnUse"><path
         style="clip-rule:evenodd"
         id="path76"
         d="M 0,0 H 1562.5 V 1562.5 H 0 Z" /></clipPath><clipPath
       id="clipPath92"
       clipPathUnits="userSpaceOnUse"><path
         id="path90"
         d="M 0,0 H 1562.5 V 1562.5 H 0 Z" /></clipPath><clipPath
       id="clipPath98"
       clipPathUnits="userSpaceOnUse"><path
         id="path96"
         d="M 0,0 H 1562.5 V 1562.5 H 0 Z" /></clipPath><clipPath
       id="clipPath104"
       clipPathUnits="userSpaceOnUse"><path
         id="path102"
         d="m 940.61462,536.32642 48.43128,-46.74103 105.7151,109.5379 -48.4314,46.74103 z" /></clipPath><clipPath
       id="clipPath110"
       clipPathUnits="userSpaceOnUse"><path
         id="path108"
         d="m 964.83026,512.95593 c 13.3739,-12.90719 34.67896,-12.52881 47.58614,0.8451 l 58.9089,61.03918 c 12.9071,13.3739 12.5288,34.67896 -0.8451,47.58612 -13.374,12.90717 -34.6789,12.52881 -47.5862,-0.84509 l -58.90889,-61.03919 c -12.90717,-13.3739 -12.52875,-34.67895 0.84515,-47.58612 z" /></clipPath><clipPath
       id="clipPath122"
       clipPathUnits="userSpaceOnUse"><path
         id="path120"
         d="M 0,0 H 1562.5 V 1562.5 H 0 Z" /></clipPath><clipPath
       id="clipPath128"
       clipPathUnits="userSpaceOnUse"><path
         id="path126"
         d="M 0,0 H 1562.5 V 1562.5 H 0 Z" /></clipPath><clipPath
       id="clipPath134"
       clipPathUnits="userSpaceOnUse"><path
         id="path132"
         d="m 1071.7638,672.21826 48.4313,-46.74103 105.7151,109.53791 -48.4314,46.74102 z" /></clipPath><clipPath
       id="clipPath140"
       clipPathUnits="userSpaceOnUse"><path
         id="path138"
         d="m 1095.9794,648.84778 c 13.374,-12.90723 34.6791,-12.52881 47.5862,0.84509 l 58.9089,61.03919 c 12.9071,13.3739 12.5288,34.67895 -0.8451,47.58612 -13.374,12.90716 -34.679,12.5288 -47.5862,-0.8451 l -58.9089,-61.03918 c -12.9071,-13.3739 -12.5288,-34.67896 0.8451,-47.58612 z" /></clipPath><clipPath
       id="clipPath152"
       clipPathUnits="userSpaceOnUse"><path
         id="path150"
         d="M 0,0 H 1562.5 V 1562.5 H 0 Z" /></clipPath><clipPath
       id="clipPath158"
       clipPathUnits="userSpaceOnUse"><path
         id="path156"
         d="M 0,0 H 1562.5 V 1562.5 H 0 Z" /></clipPath><clipPath
       id="clipPath164"
       clipPathUnits="userSpaceOnUse"><path
         id="path162"
         d="m 1202.6616,807.84967 48.4313,-46.74103 105.715,109.53791 -48.4312,46.74102 z" /></clipPath><clipPath
       id="clipPath170"
       clipPathUnits="userSpaceOnUse"><path
         id="path168"
         d="m 1226.8772,784.47919 c 13.374,-12.90717 34.6791,-12.52881 47.5862,0.84509 l 58.9089,61.03918 c 12.9072,13.37397 12.5288,34.67896 -0.8451,47.58612 -13.374,12.90723 -34.6789,12.52881 -47.5862,-0.84509 l -58.9089,-61.03918 c -12.9071,-13.3739 -12.5288,-34.67896 0.8451,-47.58612 z" /></clipPath><clipPath
       id="clipPath182"
       clipPathUnits="userSpaceOnUse"><path
         id="path180"
         d="M 0,0 H 1562.5 V 1562.5 H 0 Z" /></clipPath><clipPath
       id="clipPath188"
       clipPathUnits="userSpaceOnUse"><path
         id="path186"
         d="M 0,0 H 1562.5 V 1562.5 H 0 Z" /></clipPath><clipPath
       id="clipPath194"
       clipPathUnits="userSpaceOnUse"><path
         id="path192"
         d="M 368.96716,881.46008 H 1041.3213 V 1108.8348 H 368.96716 Z" /></clipPath><clipPath
       id="clipPath200"
       clipPathUnits="userSpaceOnUse"><path
         id="path198"
         d="m 440.84216,881.46008 h 528.03125 c 19.06244,0 37.34409,7.57251 50.82329,21.0517 13.4792,13.47919 21.0517,31.76086 21.0517,50.8233 v 83.62472 c 0,19.0624 -7.5725,37.3442 -21.0517,50.8233 -13.4792,13.4792 -31.76085,21.0517 -50.82329,21.0517 H 440.84216 c -19.06244,0 -37.34411,-7.5725 -50.8233,-21.0517 -13.47919,-13.4791 -21.0517,-31.7609 -21.0517,-50.8233 v -83.62472 c 0,-19.06244 7.57251,-37.34411 21.0517,-50.8233 13.47919,-13.47919 31.76086,-21.0517 50.8233,-21.0517 z" /></clipPath><clipPath
       id="clipPath212"
       clipPathUnits="userSpaceOnUse"><path
         style="clip-rule:evenodd"
         id="path210"
         d="M 0,0 H 1562.5 V 1562.5 H 0 Z" /></clipPath><clipPath
       id="clipPath226"
       clipPathUnits="userSpaceOnUse"><path
         id="path224"
         d="M 0,0 H 1562.5 V 1562.5 H 0 Z" /></clipPath><clipPath
       id="clipPath232"
       clipPathUnits="userSpaceOnUse"><path
         id="path230"
         d="M 0,0 H 1562.5 V 1562.5 H 0 Z" /></clipPath><clipPath
       id="clipPath238"
       clipPathUnits="userSpaceOnUse"><path
         id="path236"
         d="m 440.12903,847.77545 h 152.23084 v 67.30756 H 440.12903 Z" /></clipPath><clipPath
       id="clipPath244"
       clipPathUnits="userSpaceOnUse"><path
         id="path242"
         d="m 440.12903,881.4292 c 0,-18.58643 15.06732,-33.65375 33.65378,-33.65375 h 84.82949 c 18.58649,0 33.65381,15.06732 33.65381,33.65375 0,18.58649 -15.06732,33.65381 -33.65381,33.65381 h -84.82949 c -18.58646,0 -33.65378,-15.06732 -33.65378,-33.65381 z" /></clipPath><clipPath
       id="clipPath256"
       clipPathUnits="userSpaceOnUse"><path
         id="path254"
         d="M 0,0 H 1562.5 V 1562.5 H 0 Z" /></clipPath><clipPath
       id="clipPath262"
       clipPathUnits="userSpaceOnUse"><path
         id="path260"
         d="M 0,0 H 1562.5 V 1562.5 H 0 Z" /></clipPath><clipPath
       id="clipPath268"
       clipPathUnits="userSpaceOnUse"><path
         id="path266"
         d="m 628.98541,847.77545 h 152.23083 v 67.30756 H 628.98541 Z" /></clipPath><clipPath
       id="clipPath274"
       clipPathUnits="userSpaceOnUse"><path
         id="path272"
         d="m 628.98541,881.4292 c 0,-18.58643 15.06732,-33.65375 33.65381,-33.65375 h 84.82947 c 18.58649,0 33.65381,15.06732 33.65381,33.65375 0,18.58649 -15.06732,33.65381 -33.65381,33.65381 h -84.82947 c -18.58649,0 -33.65381,-15.06732 -33.65381,-33.65381 z" /></clipPath><clipPath
       id="clipPath286"
       clipPathUnits="userSpaceOnUse"><path
         id="path284"
         d="M 0,0 H 1562.5 V 1562.5 H 0 Z" /></clipPath><clipPath
       id="clipPath292"
       clipPathUnits="userSpaceOnUse"><path
         id="path290"
         d="M 0,0 H 1562.5 V 1562.5 H 0 Z" /></clipPath><clipPath
       id="clipPath298"
       clipPathUnits="userSpaceOnUse"><path
         id="path296"
         d="m 817.47974,847.77545 h 152.23084 v 67.30756 H 817.47974 Z" /></clipPath><clipPath
       id="clipPath304"
       clipPathUnits="userSpaceOnUse"><path
         id="path302"
         d="m 817.47974,881.4292 c 0,-18.58643 15.06732,-33.65375 33.6538,-33.65375 h 84.82947 c 18.58649,0 33.65381,15.06732 33.65381,33.65375 0,18.58649 -15.06732,33.65381 -33.65381,33.65381 h -84.82947 c -18.58648,0 -33.6538,-15.06732 -33.6538,-33.65381 z" /></clipPath><clipPath
       id="clipPath316"
       clipPathUnits="userSpaceOnUse"><path
         id="path314"
         d="M 0,0 H 1562.5 V 1562.5 H 0 Z" /></clipPath><clipPath
       id="clipPath322"
       clipPathUnits="userSpaceOnUse"><path
         id="path320"
         d="M 0,0 H 1562.5 V 1562.5 H 0 Z" /></clipPath><clipPath
       id="clipPath328"
       clipPathUnits="userSpaceOnUse"><path
         id="path326"
         d="M 156.25,661.539 H 828.60419 V 888.91369 H 156.25 Z" /></clipPath><clipPath
       id="clipPath334"
       clipPathUnits="userSpaceOnUse"><path
         id="path332"
         d="m 228.125,661.539 h 528.03125 c 19.06244,0 37.34412,7.57251 50.8233,21.0517 13.47919,13.47919 21.0517,31.76086 21.0517,50.8233 v 83.6247 c 0,19.06244 -7.57251,37.34417 -21.0517,50.82336 -13.47918,13.47913 -31.76086,21.05164 -50.8233,21.05164 H 228.125 c -19.06244,0 -37.34412,-7.57251 -50.8233,-21.05164 C 163.82253,854.38287 156.25,836.10114 156.25,817.0387 V 733.414 c 0,-19.06244 7.57253,-37.34411 21.0517,-50.8233 13.47918,-13.47919 31.76086,-21.0517 50.8233,-21.0517 z" /></clipPath><clipPath
       id="clipPath346"
       clipPathUnits="userSpaceOnUse"><path
         style="clip-rule:evenodd"
         id="path344"
         d="M 0,0 H 1562.5 V 1562.5 H 0 Z" /></clipPath><clipPath
       id="clipPath360"
       clipPathUnits="userSpaceOnUse"><path
         id="path358"
         d="M 0,0 H 1562.5 V 1562.5 H 0 Z" /></clipPath><clipPath
       id="clipPath366"
       clipPathUnits="userSpaceOnUse"><path
         id="path364"
         d="M 0,0 H 1562.5 V 1562.5 H 0 Z" /></clipPath><clipPath
       id="clipPath372"
       clipPathUnits="userSpaceOnUse"><path
         id="path370"
         d="m 227.4119,627.85443 h 152.2308 v 67.30756 H 227.4119 Z" /></clipPath><clipPath
       id="clipPath378"
       clipPathUnits="userSpaceOnUse"><path
         id="path376"
         d="m 227.4119,661.50818 c 0,-18.58643 15.06732,-33.65375 33.65377,-33.65375 h 84.8295 c 18.58646,0 33.65378,15.06732 33.65378,33.65375 0,18.58649 -15.06732,33.65381 -33.65378,33.65381 h -84.8295 c -18.58645,0 -33.65377,-15.06732 -33.65377,-33.65381 z" /></clipPath><clipPath
       id="clipPath390"
       clipPathUnits="userSpaceOnUse"><path
         id="path388"
         d="M 0,0 H 1562.5 V 1562.5 H 0 Z" /></clipPath><clipPath
       id="clipPath396"
       clipPathUnits="userSpaceOnUse"><path
         id="path394"
         d="M 0,0 H 1562.5 V 1562.5 H 0 Z" /></clipPath><clipPath
       id="clipPath402"
       clipPathUnits="userSpaceOnUse"><path
         id="path400"
         d="m 416.26825,627.85443 h 152.23083 v 67.30756 H 416.26825 Z" /></clipPath><clipPath
       id="clipPath408"
       clipPathUnits="userSpaceOnUse"><path
         id="path406"
         d="m 416.26825,661.50818 c 0,-18.58643 15.06732,-33.65375 33.65378,-33.65375 h 84.8295 c 18.58648,0 33.6538,15.06732 33.6538,33.65375 0,18.58649 -15.06732,33.65381 -33.6538,33.65381 h -84.8295 c -18.58646,0 -33.65378,-15.06732 -33.65378,-33.65381 z" /></clipPath><clipPath
       id="clipPath420"
       clipPathUnits="userSpaceOnUse"><path
         id="path418"
         d="M 0,0 H 1562.5 V 1562.5 H 0 Z" /></clipPath><clipPath
       id="clipPath426"
       clipPathUnits="userSpaceOnUse"><path
         id="path424"
         d="M 0,0 H 1562.5 V 1562.5 H 0 Z" /></clipPath><clipPath
       id="clipPath432"
       clipPathUnits="userSpaceOnUse"><path
         id="path430"
         d="M 604.76257,627.85443 H 756.9934 v 67.30756 H 604.76257 Z" /></clipPath><clipPath
       id="clipPath438"
       clipPathUnits="userSpaceOnUse"><path
         id="path436"
         d="m 604.76257,661.50818 c 0,-18.58643 15.06733,-33.65375 33.65381,-33.65375 h 84.82947 c 18.58649,0 33.65381,15.06732 33.65381,33.65375 0,18.58649 -15.06732,33.65381 -33.65381,33.65381 h -84.82947 c -18.58648,0 -33.65381,-15.06732 -33.65381,-33.65381 z" /></clipPath></defs><g
     clip-path="url(#clipPath14)"
     transform="matrix(1.3333333,0,0,-1.3333333,0,510.71997)"
     id="g10"><g
       transform="matrix(0.31999998,0,0,0.31999998,0,9.434666e-6)"
       id="g16"><g
         id="g18"><g
           clip-path="url(#clipPath24)"
           id="g20"><g
             transform="scale(3.125)"
             id="g26"><path
               id="path28"
               style="fill:#ffffff;fill-opacity:1;fill-rule:nonzero;stroke:none"
               d="M 0,0 H 500 V 500 H 0 Z" /></g></g></g><g
         id="g30"><g
           clip-path="url(#clipPath36)"
           id="g32"><g
             transform="scale(3.125)"
             id="g38"><path
               id="path40"
               style="fill:#ffffff;fill-opacity:1;fill-rule:nonzero;stroke:none"
               d="M 0,0 H 500 V 500 H 0 Z" /></g></g></g><g
         id="g42"><g
           clip-path="url(#clipPath48)"
           id="g44"><g
             clip-path="url(#clipPath54)"
             id="g50"><g
               clip-path="url(#clipPath60)"
               id="g56"><g
                 clip-path="url(#clipPath66)"
                 id="g62"><g
                   transform="matrix(0.62665719,0.64931846,-0.64931846,0.62665719,915.51611,461.90295)"
                   id="g68"><path
                     id="path70"
                     style="fill:#00bf63;fill-opacity:1;fill-rule:nonzero;stroke:none"
                     d="M 0,0 H 744 V 256 H 0 Z" /></g></g></g></g></g></g><g
         id="g72"><g
           clip-path="url(#clipPath78)"
           id="g74"><g
             transform="matrix(2.105305,2.1814375,-2.1814375,2.105305,904.6731,495.77933)"
             id="g80"><text
               id="text84"
               style="font-variant:normal;font-weight:900;font-size:38.13999939px;font-family:Montserrat;-inkscape-font-specification:Montserrat-Black;writing-mode:lr-tb;fill:#ffffff;fill-opacity:1;fill-rule:nonzero;stroke:none"
               transform="translate(0.015625,40)"><tspan
                 id="tspan82"
                 y="0"
                 x="0 30.728775 59.093811 89.822586 121.31387 146.97203 183.34332">ACADEMY</tspan></text>
</g></g></g><g
         id="g86"><g
           clip-path="url(#clipPath92)"
           id="g88"><g
             clip-path="url(#clipPath98)"
             id="g94"><g
               clip-path="url(#clipPath104)"
               id="g100"><g
                 clip-path="url(#clipPath110)"
                 id="g106"><g
                   transform="matrix(0.18918464,-0.18258208,0.18258208,0.18918464,940.61462,536.32642)"
                   id="g112"><path
                     id="path114"
                     style="fill:#00bf63;fill-opacity:1;fill-rule:nonzero;stroke:none"
                     d="M 0,0 H 256 V 579 H 0 Z" /></g></g></g></g></g></g><g
         id="g116"><g
           clip-path="url(#clipPath122)"
           id="g118"><g
             clip-path="url(#clipPath128)"
             id="g124"><g
               clip-path="url(#clipPath134)"
               id="g130"><g
                 clip-path="url(#clipPath140)"
                 id="g136"><g
                   transform="matrix(0.18918464,-0.18258208,0.18258208,0.18918464,1071.7638,672.21826)"
                   id="g142"><path
                     id="path144"
                     style="fill:#00bf63;fill-opacity:1;fill-rule:nonzero;stroke:none"
                     d="M 0,0 H 256 V 579 H 0 Z" /></g></g></g></g></g></g><g
         id="g146"><g
           clip-path="url(#clipPath152)"
           id="g148"><g
             clip-path="url(#clipPath158)"
             id="g154"><g
               clip-path="url(#clipPath164)"
               id="g160"><g
                 clip-path="url(#clipPath170)"
                 id="g166"><g
                   transform="matrix(0.18918464,-0.18258208,0.18258208,0.18918464,1202.6616,807.84967)"
                   id="g172"><path
                     id="path174"
                     style="fill:#00bf63;fill-opacity:1;fill-rule:nonzero;stroke:none"
                     d="M 0,0 H 256 V 579 H 0 Z" /></g></g></g></g></g></g><g
         id="g176"><g
           clip-path="url(#clipPath182)"
           id="g178"><g
             clip-path="url(#clipPath188)"
             id="g184"><g
               clip-path="url(#clipPath194)"
               id="g190"><g
                 clip-path="url(#clipPath200)"
                 id="g196"><g
                   transform="matrix(0.88818252,0,0,0.88818252,368.96716,881.46008)"
                   id="g202"><path
                     id="path204"
                     style="fill:#ff3131;fill-opacity:1;fill-rule:nonzero;stroke:none"
                     d="M 0,0 H 756 V 256 H 0 Z" /></g></g></g></g></g></g><g
         id="g206"><g
           clip-path="url(#clipPath212)"
           id="g208"><g
             transform="matrix(3.0316627,0,0,3.0316627,406.67477,905.71338)"
             id="g214"><text
               id="text218"
               style="font-variant:normal;font-weight:900;font-size:43.47000122px;font-family:Montserrat;-inkscape-font-specification:Montserrat-Black;writing-mode:lr-tb;fill:#ffffff;fill-opacity:1;fill-rule:nonzero;stroke:none"
               transform="translate(0,45)"><tspan
                 id="tspan216"
                 y="0"
                 x="0 32.384186 69.245651 102.84697 139.70844 168.13698">ROBOTS</tspan></text>
</g></g></g><g
         id="g220"><g
           clip-path="url(#clipPath226)"
           id="g222"><g
             clip-path="url(#clipPath232)"
             id="g228"><g
               clip-path="url(#clipPath238)"
               id="g234"><g
                 clip-path="url(#clipPath244)"
                 id="g240"><g
                   transform="matrix(0,-0.26292023,0.26292023,0,440.12903,915.08301)"
                   id="g246"><path
                     id="path248"
                     style="fill:#ff3131;fill-opacity:1;fill-rule:nonzero;stroke:none"
                     d="M 0,0 H 256 V 579 H 0 Z" /></g></g></g></g></g></g><g
         id="g250"><g
           clip-path="url(#clipPath256)"
           id="g252"><g
             clip-path="url(#clipPath262)"
             id="g258"><g
               clip-path="url(#clipPath268)"
               id="g264"><g
                 clip-path="url(#clipPath274)"
                 id="g270"><g
                   transform="matrix(0,-0.26292023,0.26292023,0,628.98541,915.08301)"
                   id="g276"><path
                     id="path278"
                     style="fill:#ff3131;fill-opacity:1;fill-rule:nonzero;stroke:none"
                     d="M 0,0 H 256 V 579 H 0 Z" /></g></g></g></g></g></g><g
         id="g280"><g
           clip-path="url(#clipPath286)"
           id="g282"><g
             clip-path="url(#clipPath292)"
             id="g288"><g
               clip-path="url(#clipPath298)"
               id="g294"><g
                 clip-path="url(#clipPath304)"
                 id="g300"><g
                   transform="matrix(0,-0.26292023,0.26292023,0,817.47974,915.08301)"
                   id="g306"><path
                     id="path308"
                     style="fill:#ff3131;fill-opacity:1;fill-rule:nonzero;stroke:none"
                     d="M 0,0 H 256 V 579 H 0 Z" /></g></g></g></g></g></g><g
         id="g310"><g
           clip-path="url(#clipPath316)"
           id="g312"><g
             clip-path="url(#clipPath322)"
             id="g318"><g
               clip-path="url(#clipPath328)"
               id="g324"><g
                 clip-path="url(#clipPath334)"
                 id="g330"><g
                   transform="matrix(0.88818252,0,0,0.88818252,156.25,661.539)"
                   id="g336"><path
                     id="path338"
                     style="fill:#004aad;fill-opacity:1;fill-rule:nonzero;stroke:none"
                     d="M 0,0 H 756 V 256 H 0 Z" /></g></g></g></g></g></g><g
         id="g340"><g
           clip-path="url(#clipPath346)"
           id="g342"><g
             transform="matrix(3.0316627,0,0,3.0316627,184.52156,687.03467)"
             id="g348"><text
               id="text352"
               style="font-variant:normal;font-weight:900;font-size:43.47000122px;font-family:Montserrat;-inkscape-font-specification:Montserrat-Black;writing-mode:lr-tb;fill:#ffffff;fill-opacity:1;fill-rule:nonzero;stroke:none"
               transform="translate(0,45)"><tspan
                 id="tspan350"
                 y="0"
                 x="0 34.166412 49.380463 77.809006 110.19319 141.05598 167.87617">VITRYLA</tspan></text>
</g></g></g><g
         id="g354"><g
           clip-path="url(#clipPath360)"
           id="g356"><g
             clip-path="url(#clipPath366)"
             id="g362"><g
               clip-path="url(#clipPath372)"
               id="g368"><g
                 clip-path="url(#clipPath378)"
                 id="g374"><g
                   transform="matrix(0,-0.26292023,0.26292023,0,227.4119,695.16199)"
                   id="g380"><path
                     id="path382"
                     style="fill:#004aad;fill-opacity:1;fill-rule:nonzero;stroke:none"
                     d="M 0,0 H 256 V 579 H 0 Z" /></g></g></g></g></g></g><g
         id="g384"><g
           clip-path="url(#clipPath390)"
           id="g386"><g
             clip-path="url(#clipPath396)"
             id="g392"><g
               clip-path="url(#clipPath402)"
               id="g398"><g
                 clip-path="url(#clipPath408)"
                 id="g404"><g
                   transform="matrix(0,-0.26292023,0.26292023,0,416.26825,695.16199)"
                   id="g410"><path
                     id="path412"
                     style="fill:#004aad;fill-opacity:1;fill-rule:nonzero;stroke:none"
                     d="M 0,0 H 256 V 579 H 0 Z" /></g></g></g></g></g></g><g
         id="g414"><g
           clip-path="url(#clipPath420)"
           id="g416"><g
             clip-path="url(#clipPath426)"
             id="g422"><g
               clip-path="url(#clipPath432)"
               id="g428"><g
                 clip-path="url(#clipPath438)"
                 id="g434"><g
                   transform="matrix(0,-0.26292023,0.26292023,0,604.76257,695.16199)"
                   id="g440"><path
                     id="path442"
                     style="fill:#004aad;fill-opacity:1;fill-rule:nonzero;stroke:none"
                     d="M 0,0 H 256 V 579 H 0 Z" /></g></g></g></g></g></g></g></g></svg>